<svg width="38" height="38" viewBox="0 0 33 32" fill="000000" xmlns="http://www.w3.org/2000/svg">
<path d="M17.24 26.3053C17.137 26.3056 17.035 26.2852 16.94 26.2453C15.3293 25.5358 13.8747 24.5151 12.6597 23.2417C11.4446 21.9684 10.4932 20.4675 9.86002 18.8253L11.25 18.2553C12.3457 21.1044 14.4935 23.424 17.25 24.7353C24.53 21.2153 24.61 12.8953 24.45 10.4053C24.4499 10.363 24.4375 10.3216 24.4145 10.2861C24.3914 10.2507 24.3586 10.2226 24.32 10.2053L17.32 7.5453L10.19 10.2053C10.1551 10.2286 10.126 10.2597 10.1052 10.2961C10.0844 10.3326 10.0723 10.3734 10.07 10.4153C9.98706 11.8221 10.0575 13.2337 10.28 14.6253C10.28 14.6253 10.41 15.4853 10.62 16.2953L9.17001 16.6753C9.01534 16.0754 8.89185 15.4679 8.80002 14.8553C8.56306 13.3544 8.48596 11.8325 8.57002 10.3153C8.57873 9.9823 8.68338 9.65894 8.87141 9.38399C9.05945 9.10903 9.32287 8.89419 9.63002 8.7653L16.63 6.1053C17.0039 5.9649 17.4161 5.9649 17.79 6.1053L24.79 8.7653C25.0983 8.88755 25.3649 9.09583 25.5581 9.36531C25.7514 9.63479 25.8631 9.95411 25.88 10.2853C26.05 13.0453 25.95 22.3853 17.49 26.2053C17.4129 26.2524 17.3283 26.2862 17.24 26.3053Z" />
<path d="M8.43 23.5152C8.26341 23.5162 8.10123 23.4617 7.96905 23.3603C7.83686 23.2589 7.74221 23.1164 7.7 22.9552L6.5 18.3552L6.19 19.4052C6.14278 19.5592 6.04727 19.6938 5.9176 19.7893C5.78794 19.8847 5.63101 19.9359 5.47 19.9352H3.25C3.05109 19.9352 2.86033 19.8562 2.71967 19.7156C2.57902 19.5749 2.5 19.3842 2.5 19.1852C2.50259 18.9871 2.58244 18.7979 2.72253 18.6578C2.86263 18.5177 3.05189 18.4378 3.25 18.4352H4.91L5.84 15.3652C5.88624 15.2088 5.98289 15.072 6.11491 14.9761C6.24693 14.8803 6.40692 14.8308 6.57 14.8352C6.73316 14.8386 6.89076 14.8951 7.01889 14.9962C7.14702 15.0973 7.23869 15.2374 7.28 15.3952L8.42 19.7652L8.74001 18.5152C8.78373 18.3549 8.87879 18.2134 9.01064 18.1122C9.14248 18.0111 9.30383 17.9559 9.47 17.9552H12.71C12.9089 17.9552 13.0997 18.0342 13.2403 18.1749C13.381 18.3156 13.46 18.5063 13.46 18.7052C13.4574 18.9033 13.3776 19.0926 13.2375 19.2327C13.0974 19.3728 12.9081 19.4526 12.71 19.4552H10.05L9.15 22.9452C9.10979 23.1056 9.01704 23.2479 8.88654 23.3494C8.75605 23.4509 8.59532 23.5057 8.43 23.5052V23.5152Z" />
<path d="M29.7494 19.4649H23.8594C23.6605 19.4649 23.4698 19.3859 23.3291 19.2452C23.1885 19.1046 23.1094 18.9138 23.1094 18.7149C23.1081 18.616 23.1266 18.5179 23.1638 18.4263C23.201 18.3347 23.2562 18.2515 23.3261 18.1816C23.396 18.1117 23.4792 18.0565 23.5708 18.0193C23.6624 17.982 23.7606 17.9636 23.8594 17.9649H29.7494C29.9484 17.9649 30.1391 18.0439 30.2798 18.1846C30.4204 18.3252 30.4994 18.516 30.4994 18.7149C30.4969 18.913 30.417 19.1023 30.2769 19.2424C30.1368 19.3825 29.9476 19.4623 29.7494 19.4649Z" />
<path d="M20.1401 15.4444H14.2501C14.0512 15.4444 13.8604 15.3654 13.7197 15.2247C13.5791 15.0841 13.5001 14.8933 13.5001 14.6944C13.4987 14.5955 13.5172 14.4974 13.5544 14.4058C13.5916 14.3142 13.6468 14.231 13.7167 14.1611C13.7867 14.0912 13.8699 14.036 13.9615 13.9988C14.0531 13.9615 14.1512 13.9431 14.2501 13.9444H20.1401C20.339 13.9444 20.5298 14.0234 20.6704 14.1641C20.8111 14.3047 20.8901 14.4955 20.8901 14.6944C20.8875 14.8925 20.8076 15.0818 20.6675 15.2219C20.5274 15.362 20.3382 15.4418 20.1401 15.4444Z" />
<path d="M17.9454 11.7496L17.9454 17.6396C17.9454 17.8385 17.8663 18.0293 17.7257 18.1699C17.585 18.3106 17.3943 18.3896 17.1954 18.3896C17.0965 18.3909 16.9984 18.3724 16.9068 18.3352C16.8152 18.298 16.732 18.2428 16.6621 18.1729C16.5921 18.103 16.5369 18.0198 16.4997 17.9282C16.4625 17.8366 16.444 17.7384 16.4454 17.6396L16.4454 11.7496C16.4454 11.5507 16.5244 11.3599 16.665 11.2192C16.8057 11.0786 16.9965 10.9996 17.1954 10.9996C17.3935 11.0022 17.5828 11.082 17.7228 11.2221C17.8629 11.3622 17.9428 11.5515 17.9454 11.7496Z" />
</svg>
