<?xml version="1.0" standalone="no"?>
<!DOCTYPE svg PUBLIC "-//W3C//DTD SVG 20010904//EN"
 "http://www.w3.org/TR/2001/REC-SVG-20010904/DTD/svg10.dtd">
<svg version="1.0" xmlns="http://www.w3.org/2000/svg"
 width="335.000000pt" height="745.000000pt" viewBox="0 0 335.000000 745.000000"
 preserveAspectRatio="xMidYMid meet">

<g transform="translate(0.000000,745.000000) scale(0.100000,-0.100000)"
fill="#000000" stroke="none">
<path d="M1000 3895 c-100 -38 -112 -44 -87 -50 15 -4 27 -8 27 -10 0 -2 -15
-26 -34 -54 -49 -72 -71 -143 -71 -231 0 -77 22 -156 54 -199 16 -21 17 -15
16 96 0 108 2 123 27 176 34 71 63 114 89 128 17 9 22 5 41 -38 l22 -48 17
105 c10 58 21 120 24 138 3 17 2 31 -2 31 -4 -1 -60 -21 -123 -44z"/>
<path d="M1920 3931 c-41 -13 -104 -48 -121 -67 -80 -91 -80 -244 -1 -327 91
-96 268 -103 369 -14 103 91 106 255 6 350 -55 51 -180 80 -253 58z m144 -122
c58 -45 71 -115 34 -180 -25 -45 -84 -74 -130 -64 -67 15 -118 96 -102 162 9
38 42 83 68 93 40 16 102 11 130 -11z"/>
<path d="M1220 3700 l0 -230 65 0 65 0 0 90 0 91 93 -3 92 -3 3 -87 3 -88 59
0 60 0 0 230 0 230 -60 0 -60 0 0 -85 0 -85 -95 0 -95 0 0 85 0 85 -65 0 -65
0 0 -230z"/>
<path d="M2320 3700 l0 -230 65 0 65 0 0 230 0 230 -65 0 -65 0 0 -230z"/>
<path d="M932 3545 c-14 -52 -16 -189 -3 -165 16 28 35 176 25 193 -8 14 -12
8 -22 -28z"/>
<path d="M976 3469 c-11 -34 -28 -150 -23 -155 13 -14 24 10 36 76 9 51 10 75
2 83 -7 7 -12 6 -15 -4z"/>
<path d="M1017 3418 c-14 -57 -19 -138 -9 -138 14 0 37 139 24 152 -6 6 -11 1
-15 -14z"/>
<path d="M1673 3325 c0 -27 2 -38 4 -22 2 15 2 37 0 50 -2 12 -4 0 -4 -28z"/>
<path d="M2009 3349 c-18 -18 -19 -23 -6 -42 17 -26 45 -34 61 -17 8 9 6 11
-10 6 -14 -4 -26 -1 -35 10 -18 22 1 50 32 46 19 -2 21 0 9 8 -21 14 -27 13
-51 -11z"/>
<path d="M1231 3354 c-2 -18 20 -74 29 -74 5 0 11 14 15 30 4 17 10 30 15 30
5 0 11 -13 15 -30 8 -36 21 -39 29 -6 3 13 8 32 12 43 3 10 -3 5 -12 -12 l-17
-30 -9 28 c-12 34 -26 35 -34 2 -8 -32 -18 -32 -31 3 -6 15 -11 22 -12 16z"/>
<path d="M1492 3323 c-2 -39 0 -43 21 -43 35 0 59 22 55 50 -1 13 -9 25 -16
28 -11 3 -11 0 -1 -16 15 -24 -2 -52 -32 -52 -13 0 -19 9 -22 38 l-4 37 -1
-42z"/>
<path d="M2482 3324 c2 -30 8 -40 23 -42 19 -3 19 -2 2 9 -13 8 -17 18 -13 34
3 13 1 27 -5 30 -7 5 -9 -6 -7 -31z"/>
<path d="M2842 3324 c2 -30 8 -40 23 -42 19 -3 19 -2 2 9 -13 8 -17 18 -13 34
3 13 1 27 -5 30 -7 5 -9 -6 -7 -31z"/>
<path d="M1375 3334 c-11 -12 -12 -20 -5 -35 11 -20 35 -25 45 -9 3 5 0 7 -8
4 -8 -3 -18 -1 -22 5 -4 7 4 11 19 11 18 0 24 4 20 14 -9 22 -32 27 -49 10z
m30 -4 c3 -5 -1 -10 -10 -10 -9 0 -13 5 -10 10 3 6 8 10 10 10 2 0 7 -4 10
-10z"/>
<path d="M1603 3343 c-18 -7 -16 -50 3 -57 28 -11 40 -5 14 7 l-25 11 28 4
c29 4 33 12 15 30 -13 13 -16 13 -35 5z m32 -13 c3 -5 -3 -10 -15 -10 -12 0
-18 5 -15 10 3 6 10 10 15 10 5 0 12 -4 15 -10z"/>
<path d="M1834 3336 c-10 -8 -15 -20 -11 -30 9 -22 35 -32 49 -18 8 8 5 9 -9
6 -12 -3 -24 -1 -27 5 -5 7 3 11 18 11 16 0 26 6 26 14 0 20 -25 27 -46 12z
m31 -6 c3 -6 -4 -10 -17 -10 -18 0 -20 2 -8 10 19 12 18 12 25 0z"/>
<path d="M2096 3334 c-12 -12 -13 -20 -6 -35 11 -20 19 -23 44 -13 19 7 21 35
4 52 -16 16 -23 15 -42 -4z m44 -19 c0 -19 -20 -29 -32 -17 -15 15 -2 43 17
36 8 -3 15 -12 15 -19z"/>
<path d="M2188 3342 c-12 -2 -18 -13 -18 -33 0 -37 18 -38 22 -1 4 34 22 31
27 -5 l4 -28 6 25 c10 36 39 38 44 3 4 -27 4 -27 6 5 0 17 -2 32 -6 33 -5 0
-21 1 -38 3 -16 1 -38 1 -47 -2z"/>
<path d="M2311 3310 c2 -30 3 -31 6 -7 5 34 33 36 33 2 0 -33 18 -32 22 0 4
36 22 36 29 0 l7 -30 1 33 c0 17 -2 32 -6 33 -5 0 -27 1 -50 2 l-43 2 1 -35z"/>
<path d="M2443 3315 c0 -22 2 -30 4 -17 2 12 2 30 0 40 -3 9 -5 -1 -4 -23z"/>
<path d="M2541 3310 c2 -30 3 -31 6 -7 5 34 33 36 33 2 0 -33 18 -32 22 0 4
36 22 36 29 0 l7 -30 1 33 c0 17 -2 32 -6 33 -5 0 -27 1 -50 2 l-43 2 1 -35z"/>
<path d="M2682 3341 c-22 -13 -11 -56 16 -59 12 -2 22 1 22 7 0 6 -6 8 -14 5
-8 -3 -17 -1 -21 5 -4 7 4 11 19 11 28 0 33 9 14 28 -14 14 -19 15 -36 3z m33
-11 c3 -5 -3 -10 -15 -10 -12 0 -18 5 -15 10 3 6 10 10 15 10 5 0 12 -4 15
-10z"/>
<path d="M2751 3310 c1 -21 3 -27 6 -13 2 12 11 27 18 33 16 13 18 10 29 -35
2 -11 4 -4 3 15 -2 31 -5 35 -29 35 -26 1 -28 -2 -27 -35z"/>
<path d="M1712 3310 c0 -19 2 -27 5 -17 2 9 2 25 0 35 -3 9 -5 1 -5 -18z"/>
<path d="M1751 3335 c0 -5 6 -21 13 -34 13 -24 14 -24 25 -3 14 27 14 43 -1
18 -10 -18 -11 -18 -24 5 -7 13 -13 20 -13 14z"/>
<path d="M1911 3308 c2 -28 2 -29 6 -8 3 14 10 28 17 32 7 5 5 8 -6 8 -14 0
-18 -8 -17 -32z"/>
</g>
</svg>
