<svg fill="none" height="24" viewBox="0 0 24 24" width="24" xmlns="http://www.w3.org/2000/svg"><g stroke="#434f5a" stroke-linejoin="round" stroke-width="1.5"><path d="m17.8429 11.7667v-7.15134h-7.0905v5.32544h-5.21383v9.2105h5.24433"/><path d="m10.7524 4.61536-5.21383 5.32544"/><g stroke-linecap="round"><path d="m15.1951 18.2079c1.2381 0 2.2418-1.0036 2.2418-2.2417s-1.0037-2.2418-2.2418-2.2418-2.2417 1.0037-2.2417 2.2418 1.0036 2.2417 2.2417 2.2417z"/><path d="m15.1953 13.5824v-1.0245"/><path d="m16.8894 14.2823.7202-.7202"/><path d="m17.5891 15.9661h1.0144"/><path d="m16.8894 17.6602.7202.7202"/><path d="m15.1953 18.36v1.0246"/><path d="m13.5015 17.6602-.7203.7202"/><path d="m12.8015 15.9661h-1.0144"/><path d="m13.5015 14.2823-.7203-.7202"/></g></g></svg>