<?xml version="1.0" standalone="no"?>
<!DOCTYPE svg PUBLIC "-//W3C//DTD SVG 20010904//EN"
 "http://www.w3.org/TR/2001/REC-SVG-20010904/DTD/svg10.dtd">
<svg version="1.0" xmlns="http://www.w3.org/2000/svg"
 width="28.000000pt" height="28.000000pt" viewBox="0 0 840.000000 529.000000"
 preserveAspectRatio="xMidYMid meet">

<g transform="translate(0.000000,529.000000) scale(0.100000,-0.100000)"
fill="#000000" stroke="black" stroke-width="105">
<path d="M3740 4866 c-19 -8 -75 -38 -125 -68 -270 -165 -585 -285 -899 -342
-147 -27 -199 -33 -406 -45 -173 -11 -213 -24 -274 -92 -65 -73 -70 -104 -70
-429 -1 -206 4 -310 17 -415 93 -725 344 -1311 774 -1807 227 -261 523 -491
839 -650 119 -60 153 -72 203 -76 l60 -4 -34 78 c-18 44 -42 105 -52 138 -16
53 -22 60 -66 83 -386 195 -742 515 -988 888 -334 505 -509 1121 -509 1784 0
97 3 192 6 212 l6 36 137 6 c474 21 945 162 1359 407 l102 61 103 -61 c405
-242 887 -386 1359 -407 l136 -6 6 -30 c10 -47 7 -381 -4 -512 -20 -239 -72
-519 -134 -717 l-15 -46 52 -13 c29 -6 82 -22 119 -35 l68 -23 19 67 c58 196
96 384 127 627 23 171 27 673 7 740 -23 76 -66 130 -127 160 -52 25 -71 28
-224 36 -471 23 -904 153 -1287 387 -137 83 -202 99 -285 68z"/>
<path d="M4520 3529 c-14 -5 -232 -217 -486 -470 l-461 -461 -169 172 c-231
235 -273 270 -329 270 -50 0 -95 -31 -115 -80 -10 -25 -10 -39 0 -73 10 -35
53 -83 269 -296 141 -139 270 -262 286 -272 43 -27 85 -24 131 10 21 16 263
253 536 527 431 433 498 504 503 536 8 43 -16 102 -50 124 -30 20 -84 26 -115
13z"/>
<path d="M5258 2531 c-29 -26 -32 -35 -36 -96 -5 -75 1 -85 54 -85 16 0 65 -9
108 -20 299 -79 531 -304 622 -605 24 -78 27 -107 27 -225 1 -119 -3 -146 -27
-225 -34 -112 -93 -232 -153 -313 -25 -34 -48 -60 -50 -58 -2 2 -26 74 -52
160 -27 86 -56 168 -65 181 -9 13 -32 29 -52 34 -69 19 -134 -28 -134 -97 0
-35 151 -534 177 -585 8 -16 30 -35 50 -43 34 -15 47 -12 347 62 290 72 313
79 344 110 47 47 42 112 -12 156 -30 25 -74 22 -226 -17 -74 -19 -136 -33
-137 -31 -2 2 17 33 42 71 52 80 107 207 138 320 19 68 22 106 22 260 0 157
-3 191 -23 265 -58 210 -139 350 -296 505 -155 154 -303 238 -501 286 -108 26
-129 24 -167 -10z"/>
<path d="M4069 2521 c-38 -39 -41 -106 -6 -147 20 -23 43 -30 188 -60 90 -18
166 -34 168 -34 2 0 -18 -24 -45 -52 -119 -126 -215 -301 -261 -475 -22 -85
-26 -120 -27 -258 -1 -173 8 -231 62 -383 103 -292 359 -544 657 -648 102 -36
251 -64 336 -64 53 0 59 3 88 35 36 42 41 91 13 144 l-17 34 -89 3 c-503 21
-882 453 -835 951 11 121 31 192 84 300 55 112 183 278 200 261 3 -3 -6 -82
-20 -177 -14 -95 -22 -183 -19 -196 3 -12 19 -35 34 -50 42 -40 101 -39 142 2
29 29 30 36 68 299 22 148 40 289 40 314 0 48 -18 83 -51 100 -26 14 -603 130
-647 130 -24 0 -42 -8 -63 -29z"/>
</g>
</svg>
