<svg fill="none" height="24" viewBox="0 0 24 24" width="24" xmlns="http://www.w3.org/2000/svg"><path d="m15.3946 17.6056-3.3944 2.338-3.46472-2.3239c-.7805-.5215-1.42023-1.2276-1.86247-2.0555-.44225-.828-.67335-1.7523-.67276-2.691v-6.02814l5.99995-1.84506 6 1.84506v6.05634c-.014.9379-.2591 1.8579-.7136 2.6784-.4545.8206-1.1044 1.5163-1.892 2.0258z" stroke="#434f5a" stroke-miterlimit="10" stroke-width="1.5"/><path d="m14.0964 14.2144c-.2752.2849-.6049.5115-.9694.6665-.3645.1549-.7564.2351-1.1525.2357-.7887 0-1.5452-.3133-2.10296-.871-.55775-.5578-.87105-1.3142-.87105-2.103s.3133-1.5452.87105-2.103c.55776-.55769 1.31426-.87105 2.10296-.87105.4839.00306.9597.12344 1.3868.35085" stroke="#434f5a" stroke-miterlimit="10" stroke-width="1.5"/><path d="m14.1125 8.00061-1.6374 3.12439 2.7067-.4678z" fill="#434f5a"/></svg>