<svg fill="none" height="80" viewBox="0 0 80 80" width="80" xmlns="http://www.w3.org/2000/svg"><path d="m60.22 40.6707h-34.4637c-.5946 0-1.0767.482-1.0767 1.0767v21.7348c0 .5947.4821 1.0768 1.0767 1.0768h34.4637c.5947 0 1.0767-.4821 1.0767-1.0768v-21.7348c0-.5947-.482-1.0767-1.0767-1.0767z" fill="#e7e7f0"/><path d="m56.3698 28.5169c-1.5512.812-3.1206 1.1223-5.0094 1.1223-4.617 0-8.5224-3.3761-8.5224-8.7779 0-5.7941 4.024-10.8036 10.2743-10.8036 4.9 0 8.1848 3.4309 8.1848 8.1301 0 4.2247-2.3632 6.6975-5.0094 6.6975-1.1223 0-2.1625-.7574-2.0804-2.4728h-.1095c-.9855 1.6607-2.2812 2.4728-3.9692 2.4728-1.6881 0-3.0385-1.3231-3.0385-3.5404 0-3.4856 2.7556-6.6701 6.6701-6.6701 1.2136 0 2.2811.2555 3.0111.5931l-.9581 5.0915c-.4197 2.1352-.0821 3.1207.8395 3.148 1.4326.0274 3.0385-1.8888 3.0385-5.1463 0-4.0787-2.4454-7.0077-6.807-7.0077-4.5897 0-8.4403 3.6316-8.4403 9.3437 0 4.6991 3.0659 7.6008 7.2359 7.6008 1.6059 0 3.0932-.3376 4.252-.9855l.4472 1.2136zm-1.5512-12.154c-.2828-.0822-.7573-.2008-1.4051-.2008-2.4728 0-4.4711 2.3359-4.4711 5.0642 0 1.2409.6205 2.1351 1.8614 2.1351 1.6333 0 3.1206-2.0804 3.4309-3.8232l.5931-3.1845z" fill="#36354c"/><path d="m55.5119 28.0518h-43.9533c-1.58742 0-2.87427 1.2869-2.87427 2.8743v20.9775c0 1.5874 1.28685 2.8743 2.87427 2.8743h43.9533c1.5874 0 2.8743-1.2869 2.8743-2.8743v-20.9775c0-1.5874-1.2869-2.8743-2.8743-2.8743z" fill="#d0bdf4"/><g fill="#36354c"><path d="m55.5119 55.4621h-43.9533c-1.96179 0-3.5586-1.5968-3.5586-3.5586v-20.9776c0-1.9617 1.59681-3.5586 3.5586-3.5586h43.9533c1.9618 0 3.5586 1.5969 3.5586 3.5586v20.9776c0 1.9618-1.5968 3.5586-3.5586 3.5586zm-43.9533-26.7261c-1.2044 0-2.18991.9855-2.18991 2.1899v20.9776c0 1.2135.98551 2.1899 2.18991 2.1899h43.9533c1.2045 0 2.1899-.9855 2.1899-2.1899v-20.9776c0-1.2044-.9854-2.1899-2.1899-2.1899z"/><path d="m20.0442 42.0943c-.3741 0-.6843-.3102-.6843-.6843v-4.0696c0-.3741.3102-.6844.6843-.6844s.6844.3103.6844.6844v4.0696c0 .3741-.3103.6843-.6844.6843z"/><path d="m20.0445 42.0946c-.2372 0-.4654-.1187-.5931-.3468-.1916-.3285-.073-.7482.2555-.9307l3.5312-2.0348c.3285-.1825.7482-.073.9307.2555s.073.7482-.2555.9307l-3.5312 2.0348c-.1095.0639-.2281.0913-.3376.0913z"/><path d="m23.5667 44.1381c-.1186 0-.2372-.0273-.3467-.0912l-3.5221-2.0439c-.3285-.1917-.438-.6114-.2464-.9399s.6114-.438.9307-.2463l3.5221 2.0439c.3285.1916.438.6113.2464.9398-.1277.219-.3559.3376-.5931.3376z"/><path d="m20.026 46.1639c-.3741 0-.6844-.3103-.6844-.6844l.0183-4.0696c0-.3741.3102-.6843.6843-.6843s.6844.3102.6844.6843l-.0183 4.0696c0 .3741-.3102.6844-.6843.6844z"/><path d="m16.5132 44.1107c-.2372 0-.4654-.1278-.5931-.3468-.1916-.3285-.073-.7482.2555-.9307l3.5403-2.0165c.3285-.1917.7483-.073.9307.2555.1917.3284.073.7482-.2554.9307l-3.5404 2.0165c-.1095.0639-.2281.0913-.3376.0913z"/><path d="m20.0445 42.0944c-.1186 0-.2372-.0274-.3467-.0912l-3.513-2.0622c-.3285-.1916-.438-.6113-.2463-.9398.1916-.3285.6113-.438.9398-.2464l3.513 2.0622c.3285.1916.438.6113.2463.9398-.1277.219-.3558.3376-.5931.3376z"/><path d="m33.8496 42.0943c-.3741 0-.6844-.3102-.6844-.6843v-4.0696c0-.3741.3103-.6844.6844-.6844s.6843.3103.6843.6844v4.0696c0 .3741-.3102.6843-.6843.6843z"/><path d="m33.8498 42.0946c-.2372 0-.4654-.1187-.5931-.3468-.1916-.3285-.073-.7482.2555-.9307l3.5312-2.0348c.3285-.1825.7482-.073.9307.2555.1916.3285.073.7482-.2555.9307l-3.5312 2.0348c-.1095.0639-.2281.0913-.3376.0913z"/><path d="m37.372 44.1381c-.1186 0-.2372-.0273-.3467-.0912l-3.5221-2.0439c-.3285-.1917-.438-.6114-.2464-.9399s.6114-.438.9307-.2463l3.5221 2.0439c.3285.1916.438.6113.2464.9398-.1277.219-.3559.3376-.5931.3376z"/><path d="m33.8313 46.1639c-.3742 0-.6844-.3103-.6844-.6844l.0183-4.0696c0-.3741.3102-.6843.6843-.6843s.6844.3102.6844.6843l-.0183 4.0696c0 .3741-.3102.6844-.6843.6844z"/><path d="m30.3185 44.1107c-.2373 0-.4654-.1278-.5931-.3468-.1916-.3285-.073-.7482.2555-.9307l3.5403-2.0165c.3285-.1917.7483-.073.9307.2555.1917.3284.073.7482-.2554.9307l-3.5404 2.0165c-.1095.0639-.2281.0913-.3376.0913z"/><path d="m33.8498 42.0944c-.1186 0-.2372-.0274-.3467-.0912l-3.513-2.0622c-.3285-.1916-.438-.6113-.2463-.9398.1916-.3285.6113-.438.9398-.2464l3.513 2.0622c.3285.1916.438.6113.2463.9398-.1277.219-.3558.3376-.5931.3376z"/><path d="m47.6554 42.0943c-.3742 0-.6844-.3102-.6844-.6843v-4.0696c0-.3741.3102-.6844.6844-.6844.3741 0 .6843.3103.6843.6844v4.0696c0 .3741-.3102.6843-.6843.6843z"/><path d="m47.6556 42.0946c-.2372 0-.4653-.1187-.5931-.3468-.1916-.3285-.073-.7482.2555-.9307l3.5313-2.0348c.3285-.1825.7482-.073.9307.2555s.073.7482-.2555.9307l-3.5312 2.0348c-.1095.0639-.2282.0913-.3377.0913z"/><path d="m51.1778 44.1381c-.1186 0-.2372-.0273-.3467-.0912l-3.5221-2.0439c-.3285-.1917-.438-.6114-.2464-.9399s.6114-.438.9307-.2463l3.5221 2.0439c.3285.1916.438.6113.2464.9398-.1278.219-.3559.3376-.5931.3376z"/><path d="m47.6371 46.1639c-.3741 0-.6843-.3103-.6843-.6844l.0182-4.0696c0-.3741.3102-.6843.6844-.6843.3741 0 .6843.3102.6843.6843l-.0182 4.0696c0 .3741-.3103.6844-.6844.6844z"/><path d="m44.1243 44.1107c-.2373 0-.4654-.1278-.5931-.3468-.1916-.3285-.073-.7482.2555-.9307l3.5403-2.0165c.3285-.1917.7482-.073.9307.2555.1917.3284.073.7482-.2555.9307l-3.5403 2.0165c-.1095.0639-.2281.0913-.3376.0913z"/><path d="m47.6556 42.0944c-.1186 0-.2372-.0274-.3467-.0912l-3.513-2.0622c-.3285-.1916-.438-.6113-.2464-.9398.1917-.3285.6114-.438.9399-.2464l3.513 2.0622c.3285.1916.438.6113.2463.9398-.1277.219-.3558.3376-.5931.3376z"/><path d="m66.6804 69.9428h-40.9331c-2.9381 0-5.3288-2.3906-5.3288-5.3288v-9.2797c0-.3741.3103-.6844.6844-.6844s.6843.3103.6843.6844v9.2797c0 2.1808 1.7793 3.9601 3.9601 3.9601h40.9239c2.1808 0 3.9601-1.7793 3.9601-3.9601v-21.4793c0-2.1808-1.7793-3.9601-3.9601-3.9601h-4.5988c-.3741 0-.6843-.3103-.6843-.6844s.3102-.6843.6843-.6843h4.5988c2.9382 0 5.3288 2.3906 5.3288 5.3288v21.4793c0 2.9382-2.3906 5.3288-5.3288 5.3288z"/><path d="m65.3118 56.3835c-1.3869 0-2.5092-1.1224-2.5092-2.5093s1.1223-2.5093 2.5092-2.5093c1.387 0 2.5093 1.1224 2.5093 2.5093s-1.1223 2.5093-2.5093 2.5093zm0-3.6499c-.6296 0-1.1406.511-1.1406 1.1406s.511 1.1406 1.1406 1.1406 1.1406-.511 1.1406-1.1406-.511-1.1406-1.1406-1.1406z"/></g></svg>