<svg xmlns="http://www.w3.org/2000/svg" width="208" height="226" fill="none"><path fill="#fff" stroke="#36354c" stroke-width="2" d="M163 1.5H45A6.5 6.5 0 0 0 38.5 8v210a6.5 6.5 0 0 0 6.5 6.5h118a6.5 6.5 0 0 0 6.5-6.5V8a6.5 6.5 0 0 0-6.5-6.5z"/><g stroke="#e7e7f0"><path d="M96 33.5H54a3.5 3.5 0 0 0-3.5 3.5v40a3.5 3.5 0 0 0 3.5 3.5h42a3.5 3.5 0 0 0 3.5-3.5V37a3.5 3.5 0 0 0-3.5-3.5zM154 33.5h-42a3.5 3.5 0 0 0-3.5 3.5v40a3.5 3.5 0 0 0 3.5 3.5h42a3.5 3.5 0 0 0 3.5-3.5V37a3.5 3.5 0 0 0-3.5-3.5zM96 89.5H54a3.5 3.5 0 0 0-3.5 3.5v40a3.5 3.5 0 0 0 3.5 3.5h42a3.5 3.5 0 0 0 3.5-3.5V93a3.5 3.5 0 0 0-3.5-3.5zM96 145.5H54a3.5 3.5 0 0 0-3.5 3.5v40a3.5 3.5 0 0 0 3.5 3.5h42a3.5 3.5 0 0 0 3.5-3.5v-40a3.5 3.5 0 0 0-3.5-3.5zM154 89.5h-42a3.5 3.5 0 0 0-3.5 3.5v40a3.5 3.5 0 0 0 3.5 3.5h42a3.5 3.5 0 0 0 3.5-3.5V93a3.5 3.5 0 0 0-3.5-3.5zM154 145.5h-42a3.5 3.5 0 0 0-3.5 3.5v40a3.5 3.5 0 0 0 3.5 3.5h42a3.5 3.5 0 0 0 3.5-3.5v-40a3.5 3.5 0 0 0-3.5-3.5z"/></g><path fill="#fff" stroke="#36354c" stroke-width="2" d="M128 46.5H80a6.5 6.5 0 0 0-6.5 6.5v48a6.5 6.5 0 0 0 6.5 6.5h48a6.5 6.5 0 0 0 6.5-6.5V53a6.5 6.5 0 0 0-6.5-6.5z"/><path fill="#36354c" d="M101 86a3 3 0 1 1-6 0 3 3 0 0 1 6 0z"/><path fill="#b5f2d5" d="M89 83c0-2.761 1.9-5 4.242-5H103v9H89z"/><path fill="#36354c" fill-rule="evenodd" d="M101 80h-7.758C92.3 80 91 81.022 91 83v2h10zm-7.758-2C90.9 78 89 80.239 89 83v4h14v-9z" clip-rule="evenodd"/><path fill="#36354c" fill-rule="evenodd" d="M94 84a1 1 0 1 0 0-2 1 1 0 0 0 0 2zm4 0a1 1 0 1 0 0-2 1 1 0 0 0 0 2z" clip-rule="evenodd"/><path fill="#b5f2d5" d="M101 78h13.714c2.367 0 4.286 2.239 4.286 5v4h-18z"/><path fill="#36354c" fill-rule="evenodd" d="M114.714 80H103v5h14v-2c0-1.957-1.301-3-2.286-3zM101 78v9h18v-4c0-2.761-1.919-5-4.286-5z" clip-rule="evenodd"/><path fill="#36354c" d="M117 86a3 3 0 1 1-6 0 3 3 0 0 1 6 0zm-7 0a3 3 0 1 1-6 0 3 3 0 0 1 6 0z"/><path fill="#fff" d="M108 86a1 1 0 1 1-2 0 1 1 0 0 1 2 0zm7 0a1 1 0 1 1-2 0 1 1 0 0 1 2 0z"/><path fill="#fff" fill-rule="evenodd" d="M115 80h-14V69h9.644c1.259 0 2.34.864 2.578 2.06z" clip-rule="evenodd"/><path fill="#36354c" fill-rule="evenodd" d="M111.26 71.45c-.042-.216-.265-.45-.616-.45H103v7h9.563zm1.962-.39c-.238-1.196-1.319-2.06-2.578-2.06H101v11h14z" clip-rule="evenodd"/><path fill="#fff" d="M94.693 71.06A2.51 2.51 0 0 1 97.148 69H103v11H93z"/><path fill="#36354c" fill-rule="evenodd" d="M101 71h-3.852a.51.51 0 0 0-.49.431L95.414 78H101zm-8 9 1.693-8.94A2.51 2.51 0 0 1 97.148 69H103v11z" clip-rule="evenodd"/><path fill="#36354c" fill-rule="evenodd" d="m100 77-3 3-1.414-1.414 3-3z" clip-rule="evenodd"/><path fill="#fff" stroke="#36354c" stroke-width="2" d="M56 118.5H8a6.5 6.5 0 0 0-6.5 6.5v48a6.5 6.5 0 0 0 6.5 6.5h48a6.5 6.5 0 0 0 6.5-6.5v-48a6.5 6.5 0 0 0-6.5-6.5z"/><path fill="#fff" d="M21 142h21v9H21z"/><path fill="#36354c" fill-rule="evenodd" d="M40 144H23v5h17zm-19-2v9h21v-9z" clip-rule="evenodd"/><path fill="#fff" d="M20 150.862c0-1.028 1.053-1.862 2.352-1.862h18.296c1.299 0 2.352.834 2.352 1.862V161H20z"/><path fill="#36354c" fill-rule="evenodd" d="M22 151.072V159h19v-7.928a.815.815 0 0 0-.352-.072H22.352a.815.815 0 0 0-.352.072zm.352-2.072c-1.299 0-2.352.834-2.352 1.862V161h23v-10.138c0-1.028-1.053-1.862-2.352-1.862z" clip-rule="evenodd"/><path fill="#b5f2d5" d="M33 153.266c0-.699.55-1.266 1.227-1.266h3.546c.677 0 1.227.567 1.227 1.266V161h-6z"/><path fill="#36354c" fill-rule="evenodd" d="M35 154v5h2v-5zm-.773-2c-.677 0-1.227.567-1.227 1.266V161h6v-7.734c0-.699-.55-1.266-1.227-1.266z" clip-rule="evenodd"/><path fill="#fff" d="M23 152.9a.9.9 0 0 1 .9-.9h4.2a.9.9 0 0 1 .9.9v4.2a.9.9 0 0 1-.9.9h-4.2a.9.9 0 0 1-.9-.9z"/><path fill="#36354c" fill-rule="evenodd" d="M25 154v2h2v-2zm-1.1-2a.9.9 0 0 0-.9.9v4.2a.9.9 0 0 0 .9.9h4.2a.9.9 0 0 0 .9-.9v-4.2a.9.9 0 0 0-.9-.9z" clip-rule="evenodd"/><path fill="#fff" d="M24 145.9a.9.9 0 0 1 .9-.9h4.2a.9.9 0 0 1 .9.9v4.2a.9.9 0 0 1-.9.9h-4.2a.9.9 0 0 1-.9-.9z"/><path fill="#36354c" fill-rule="evenodd" d="M26 147v2h2v-2zm-1.1-2a.9.9 0 0 0-.9.9v4.2a.9.9 0 0 0 .9.9h4.2a.9.9 0 0 0 .9-.9v-4.2a.9.9 0 0 0-.9-.9z" clip-rule="evenodd"/><path fill="#fff" d="M32 145.9a.9.9 0 0 1 .9-.9h4.2a.9.9 0 0 1 .9.9v4.2a.9.9 0 0 1-.9.9h-4.2a.9.9 0 0 1-.9-.9z"/><path fill="#36354c" fill-rule="evenodd" d="M34 147v2h2v-2zm-1.1-2a.9.9 0 0 0-.9.9v4.2a.9.9 0 0 0 .9.9h4.2a.9.9 0 0 0 .9-.9v-4.2a.9.9 0 0 0-.9-.9z" clip-rule="evenodd"/><path fill="#fff" d="M21 140.965c0-.533.504-.965 1.125-.965h18.75c.621 0 1.125.432 1.125.965v1.071c0 .533-.504.964-1.125.964h-18.75c-.621 0-1.125-.431-1.125-.964z"/><path fill="#36354c" fill-rule="evenodd" d="M22 141.029v.943a.263.263 0 0 0 .125.028h18.75c.06 0 .1-.015.125-.028v-.943a.25.25 0 0 0-.125-.029h-18.75a.25.25 0 0 0-.125.029zm-2-.064c0-1.224 1.102-1.965 2.125-1.965h18.75c1.023 0 2.125.741 2.125 1.965v1.071c0 1.224-1.102 1.964-2.125 1.964h-18.75c-1.023 0-2.125-.74-2.125-1.964z" clip-rule="evenodd"/><path fill="#36354c" d="M24 138a1 1 0 0 1 1-1h3a1 1 0 0 1 1 1v1h-5zm9 0a1 1 0 0 1 1-1h3a1 1 0 0 1 1 1v1h-5z"/><path fill="#fff" stroke="#36354c" stroke-width="2" d="M200 118.5h-48a6.5 6.5 0 0 0-6.5 6.5v48a6.5 6.5 0 0 0 6.5 6.5h48a6.5 6.5 0 0 0 6.5-6.5v-48a6.5 6.5 0 0 0-6.5-6.5z"/><path fill="#b5f2d5" d="M165.5 144.5h4.5v8.25h-4.5z"/><path fill="#36354c" fill-rule="evenodd" d="M170 152.75v-8.25h1.5v8.25z" clip-rule="evenodd"/><path fill="#112035" d="m175.952 146.381.735-.006v4.107h-.738l-.009-1.704v-.006l-.003-.009v-.009l-.003-.006v-.012l-.003-.006v-.005l-.002-.003v-.003l-.003-.003-.003-.003-.003-.003h-.006l-.006-.003h-.003l-.006-.003-.006.003-.006.003-.003.006-.006.006-.006.008-.005.012-.003.012-.182.809h-.618l-.188-.806-.006-.012-.002-.006v-.006l-.006-.008-.003-.006-.003-.003-.006-.003-.003-.003-.006-.003h-.005l-.009.003-.006.003-.003.003-.003.003-.003.003-.003.003v.002l-.003.003v.009l-.002.006v.006l-.003.009v.009l-.003.012.015 1.707h-.719l-.015-4.098.748-.003.525 1.822v.006l.002.003v.006l.003.005v.006l.003.009.003.006.003.006.003.006.005.006.003.003.006.003h.006l.009.003h.015v-.003h.006l.003-.003.003-.003.003-.003.003-.003v-.003l.002-.006v-.006l.006-.009.003-.015.003-.005.003-.006zm3.703 0 .735-.006v4.107h-.738l-.009-1.704v-.006l-.003-.009v-.009l-.003-.006v-.012l-.003-.006v-.005l-.003-.003v-.003l-.003-.003-.003-.003-.003-.003h-.005l-.006-.003h-.003l-.006-.003-.006.003-.006.003-.002.006-.006.006-.006.008-.006.012-.003.012-.182.809h-.618l-.187-.806-.006-.012-.003-.006v-.006l-.006-.008-.003-.006-.003-.003-.005-.003-.003-.003-.006-.003h-.006l-.009.003-.006.003-.003.003-.003.003-.003.003-.003.003v.002l-.003.003v.009l-.003.006v.006l-.003.009v.009l-.003.012.015 1.707h-.717l-.015-4.098.747-.003.525 1.822v.006l.002.003v.006l.003.005v.006l.003.009.003.006.003.006.003.006.006.006.003.003.006.003h.005l.009.003h.015v-.003h.005l.003-.003.003-.003.003-.003.003-.003v-.003l.003-.006v-.006l.006-.009.003-.015.003-.005.003-.006zm4.154.299.032.037.012.018.015.021.015.018.011.02.012.018.009.02.012.02.008.021.012.021.009.023.008.024.012.022.009.024.009.027.008.024.009.026.006.026.006.023.006.027.006.026.003.027.003.026v.026l.003.027v.026l.003.03v.028l.003.027v.062l-.009 2.109v.053l-.003.053-.003.026-.003.011v.015l-.003.012v.015l-.003.011-.003.012-.003.012v.012l-.003.011-.003.012-.003.011-.003.003v.009l-.003.012h-.002v.011l-.009.021-.008.021-.006.023-.009.021-.011.022-.009.024-.009.024-.012.024-.006.011-.006.012-.003.006-.003.006-.006.011-.006.009-.008.011-.003.006-.003.006-.006.012-.003.003-.006.006-.005.009-.003.006-.003.006-.009.009-.006.005-.003.006-.005.009-.006.006-.003.003-.009.008-.003.006-.006.003-.009.009-.003.006-.006.005-.009.009-.017.015-.015.018-.02.017-.017.015-.003.003-.006.006-.009.006-.018.015-.012.007-.009.007-.008.008-.012.006-.009.006-.006.003-.005.003-.024.015-.011.006-.012.006-.024.011-.026.009-.012.006-.009.003-.006.003-.014.006-.012.003-.011.005-.015.003-.012.003-.012.006-.012.003-.008.003-.012.003h-.009l-.008.003-.009.003h-.009l-.009.002h-.008l-.006.003h-.068l-.017.003h-.018l-.855.006h-.077l-.015-.003h-.027l-.011-.003h-.015l-.015-.003h-.008l-.006-.003h-.015l-.005-.002h-.009l-.015-.003-.015-.003-.015-.003-.015-.003-.014-.003-.011-.003-.015-.003-.015-.006-.011-.002-.027-.009-.023-.012-.026-.009-.012-.005-.012-.006-.023-.012-.021-.015-.021-.012-.02-.015-.02-.014-.021-.015-.02-.015-.018-.014-.018-.017-.017-.015-.018-.018-.015-.015-.014-.017-.015-.015-.011-.015-.012-.017-.012-.017-.012-.018-.012-.018-.011-.017-.012-.021-.011-.02-.009-.02-.012-.021-.011-.023-.009-.024-.009-.023-.009-.021-.009-.026-.006-.024-.009-.023-.006-.026-.005-.024-.006-.023-.003-.024-.006-.021-.003-.02-.003-.017-.003-.018-.003-.015-.002-.014v-.012l-.003-.012v-.021l.002-2.355.006-.041.006-.037.006-.039.009-.035.006-.026.005-.027.006-.026.009-.024.009-.023.009-.026.012-.024.009-.023.011-.024.012-.023.011-.024.012-.02.012-.02.015-.018.011-.021.015-.018.012-.017.015-.017.015-.018.017-.015.017-.017.015-.018.017-.018.021-.015.021-.017.017-.015.02-.017.021-.011.017-.015.024-.012.018-.012.023-.009.02-.011.024-.009.02-.009.027-.009.023-.005.024-.009.026-.009.029-.006.024-.005.026-.003.026-.006.027-.003.026-.003.027-.003.026-.003h.879l.035.003.017.003h.018l.018.003.02.003.021.003.017.003.024.003.02.005.021.006.024.006.022.006.024.009.023.005.012.006.012.003.024.012.008.003.012.005.023.012.021.012.008.006.012.006.009.009.009.006.009.009.012.005.017.015.018.017.017.015.018.017.017.018.018.018.015.018zm-.592.484-.006-.006-.005-.003-.012-.006-.009-.006-.011-.006-.015-.003-.012-.003-.006-.003-.009-.003h-.026a17.614 17.614 0 0 0-.325-.006h-.343l-.008-.003h-.009l-.009.003h-.024l-.009.003-.011.003-.012.003-.012.003-.011.003-.009.003-.012.006-.017.006-.009.006-.006.006-.009.003-.009.005-.006.006-.006.009-.006.009-.005.008-.006.009-.006.012-.012.023-.008.024-.003.012-.003.011-.006.015v.012l-.003.002v.062l-.003.012v.249l-.003.026v1.723l-.003.09v.057l.003.026.003.011.003.015.003.011.006.012.003.012.006.012.005.012.006.011.006.009.006.012.009.009.008.008.009.009.009.009.009.006.012.008.003.003.006.003.003.003.006.003.008.003.003.003h.003l.006.003h.003l.006.003h.005v.003h.083l.656.003h.058l.012-.003.009-.003.012-.006.011-.003.012-.006.006-.003.006-.003.006-.006.005-.003.006-.005.006-.003.003-.003.006-.006.003-.003.005-.006.003-.006.006-.002.003-.006.006-.006.003-.006.003-.006.009-.011.006-.012.009-.024.006-.012.003-.003v-.006l.003-.005.002-.012.003-.006.003-.006.003-.011v-.012h.003v-.015l.003-.011v-.015l.003-.012v-.072l-.003-.009v-1.047l.003-.044v-.908l-.003-.029v-.027l-.003-.029-.003-.011v-.015l-.006-.012-.003-.011-.002-.012-.006-.012-.006-.012-.006-.009-.009-.011-.009-.009-.006-.012-.009-.009-.009-.008-.008-.009-.012-.009-.009-.006z"/><path fill="#36354c" fill-rule="evenodd" d="M164 144.5a1.5 1.5 0 0 1 1.5-1.5h21a1.5 1.5 0 0 1 1.5 1.5v8.25a1.5 1.5 0 0 1-1.5 1.5h-21a1.5 1.5 0 0 1-1.5-1.5zm22.5 0h-21v8.25h21z" clip-rule="evenodd"/><g stroke="#36354c" stroke-width="2"><path fill="#fff" d="M56 46.5H8A6.5 6.5 0 0 0 1.5 53v48a6.5 6.5 0 0 0 6.5 6.5h48a6.5 6.5 0 0 0 6.5-6.5V53a6.5 6.5 0 0 0-6.5-6.5z"/><path fill="#fff" d="M26.052 65.5H38.58v23.263H26.052z"/><path d="M26 72.237h12"/></g><path fill="#36354c" d="M31 79.237h7v3h-7z"/><path fill="#36354c" stroke="#36354c" stroke-width="2" d="M33 83.184h5.579v5.579H33z"/><path fill="#b5f2d5" stroke="#36354c" stroke-width="2" d="M38.684 65.5H43v23.263h-4.316z"/><path fill="#36354c" d="M30.737 68.29h2.526v1.263h-2.526zm0 7.578h2.526v1.264h-2.526z"/><path fill="#fff" stroke="#36354c" stroke-width="2" d="M21 80.237h11.5v8.5H21z"/><path fill="#36354c" d="M25.29 83.447h2.526v1.263H25.29z"/><path fill="#fff" stroke="#36354c" stroke-width="2" d="M200 46.5h-48a6.5 6.5 0 0 0-6.5 6.5v48a6.5 6.5 0 0 0 6.5 6.5h48a6.5 6.5 0 0 0 6.5-6.5V53a6.5 6.5 0 0 0-6.5-6.5z"/><path fill="#fff" stroke="#36354c" stroke-width="2" d="M165 77c0-6.075 4.925-11 11-11s11 4.925 11 11-4.925 11-11 11-11-4.925-11-11z"/><path stroke="#36354c" stroke-linecap="round" stroke-linejoin="round" stroke-width="2" d="M165 76.5h3c1.768-.136 3.484-1.274 4.866-2.392.857-.693 1.946-1.108 3.134-1.108s2.277.415 3.134 1.108c1.382 1.118 3.098 2.256 4.866 2.392h3M166 80h5.422A5.014 5.014 0 0 0 174 82.578v5.183c.644.15 1.31.239 2 .239s1.356-.089 2-.239v-5.183A5.014 5.014 0 0 0 180.578 80H186z"/><path fill="#b5f2d5" d="M176 80a2 2 0 1 0 0-4 2 2 0 0 0 0 4z"/><path fill="#fff" stroke="#36354c" stroke-width="2" d="M128 118.5H80a6.5 6.5 0 0 0-6.5 6.5v48a6.5 6.5 0 0 0 6.5 6.5h48a6.5 6.5 0 0 0 6.5-6.5v-48a6.5 6.5 0 0 0-6.5-6.5z"/><path fill="#b5f2d5" d="M100 156h8v3h-8zm1-8h6v3h-6z"/><path fill="#36354c" d="M104 142.995c.553 0 1-.453 1-1.005a1 1 0 1 0-2 0v.01c0 .552.447.995 1 .995zm7-2.995h-2.432c-.784-1.799-2.565-3-4.568-3s-3.784 1.201-4.568 3H97c-1.654 0-3 1.346-3 3v15c0 1.654 1.346 3 3 3h14c1.654 0 3-1.346 3-3v-15c0-1.654-1.346-3-3-3zm-3 19h-8v-.161c0-1.539 1.832-2.839 4-2.839s4 1.3 4 2.839zm4-1a1 1 0 0 1-1 1h-1v-.161c0-2.668-2.691-4.839-6-4.839s-6 2.171-6 4.839V159h-1a1 1 0 0 1-1-1v-15c0-.551.448-1 1-1h3.142a1 1 0 0 0 .968-.749c.343-1.325 1.532-2.251 2.89-2.251s2.547.926 2.891 2.251a.998.998 0 0 0 .967.749H111c.552 0 1 .449 1 1zm-8-12c-1.93 0-3.5 1.57-3.5 3.5s1.57 3.5 3.5 3.5 3.5-1.57 3.5-3.5-1.57-3.5-3.5-3.5zm0 5c-.827 0-1.5-.673-1.5-1.5s.673-1.5 1.5-1.5 1.5.673 1.5 1.5-.673 1.5-1.5 1.5z"/></svg>