<svg width="36" height="36" viewBox="0 0 24 24" fill="none" xmlns="http://www.w3.org/2000/svg">
<path d="M21.9164 14.1978L21.5321 13.5339C21.7417 13.464 22.126 12.87 21.8116 12.5556C21.6369 12.3808 21.2875 12.4507 21.1128 12.5206L20.6585 10.2844C20.6236 10.0398 20.4489 9.83015 20.2043 9.76027C19.5754 9.55062 18.3175 9.20121 16.8849 9.06145C15.4872 8.92168 14.1595 9.0265 13.4956 9.09639C13.251 9.13133 13.0414 9.27109 12.9365 9.51568L12.063 11.6471C11.9233 11.5772 11.5738 11.4025 11.3642 11.5423C11.0148 11.8218 11.2594 12.4507 11.469 12.5556L11.0148 13.1146C10.91 13.2194 10.875 13.3592 10.8401 13.499C10.6654 15.5954 10.8051 17.0979 10.91 17.6569C10.9449 17.7967 11.0497 17.9365 11.2244 17.9365L12.5173 18.0762C12.657 18.0762 12.7968 18.0064 12.8667 17.8666L13.0763 17.4124C13.1462 17.2726 13.286 17.2027 13.4257 17.2027L18.7368 17.7268C18.8765 17.7268 19.0163 17.8666 19.0512 18.0064L19.1561 18.4955C19.191 18.6353 19.2958 18.7401 19.4705 18.7751L20.7633 18.9148C20.9381 18.9148 21.0778 18.8449 21.1128 18.7052C21.3224 18.1461 21.7766 16.7135 21.9863 14.6171C22.0212 14.4773 21.9863 14.3026 21.9164 14.1978ZM12.9365 11.717L13.7402 9.90003C13.7751 9.79521 13.845 9.76027 13.9498 9.72533C14.3342 9.69038 15.4174 9.58556 16.8849 9.72533C18.3524 9.86509 19.3657 10.1796 19.7501 10.3193C19.8549 10.3543 19.9248 10.4241 19.9248 10.529L20.3441 12.4857C20.379 12.6604 20.2392 12.8351 20.0296 12.8351L13.1462 12.1363C12.9715 12.0664 12.8317 11.8917 12.9365 11.717ZM13.7402 14.3026L13.3209 14.8617C13.286 14.9315 13.1811 14.9665 13.1113 14.9665L11.7486 14.8267C11.6437 14.8267 11.5389 14.7219 11.5389 14.6171C11.504 14.3375 11.469 13.8833 11.5738 13.5339C11.6088 13.3941 11.7486 13.3592 11.8883 13.3941L13.6354 13.9532C13.7751 13.9532 13.8101 14.1628 13.7402 14.3026ZM17.3042 16.0497H16.4656C16.2909 16.0497 16.1162 16.0497 15.9415 16.0147L15.1378 15.84C15.033 15.8051 14.9282 15.7002 14.9282 15.5605C14.9282 15.3858 15.068 15.246 15.2427 15.281L16.2909 15.3858L17.3391 15.4906C17.5138 15.4906 17.6187 15.6653 17.5837 15.84C17.5488 15.9448 17.4439 16.0497 17.3042 16.0497ZM21.1477 15.5605C21.1128 15.6653 21.0079 15.7352 20.9031 15.7352L19.5055 15.5605C19.4356 15.5605 19.3308 15.4906 19.2958 15.4207L19.0163 14.7918C18.9464 14.652 19.0512 14.4773 19.191 14.4424L21.0079 14.2327C21.1477 14.2327 21.2525 14.3026 21.2875 14.4424C21.3224 14.8267 21.2176 15.281 21.1477 15.5605Z" fill="#343758"/>
<path d="M9.61712 11.6122L10.7702 8.60727C10.8051 8.57233 10.7702 8.50244 10.7352 8.4675L9.65206 7.8735C9.61712 7.8735 9.61712 7.83856 9.58218 7.80362L9.23277 5.18304C9.23277 5.07822 9.05806 5.04328 9.02312 5.1481L7.87006 8.15303C7.83512 8.18797 7.87006 8.25786 7.90501 8.2928L8.98818 8.88679C9.02312 8.88679 9.02312 8.92174 9.05806 8.95668L9.40747 11.5773C9.40747 11.6821 9.58218 11.717 9.61712 11.6122Z" fill="#343758"/>
<path d="M6.47245 8.43258L7.41586 10.1796C7.48574 10.3194 7.34597 10.4242 7.20621 10.3543L5.59892 9.13141C5.52904 9.09646 5.52904 8.99164 5.59892 8.92176L6.2628 8.3627C6.33268 8.3627 6.43751 8.3627 6.47245 8.43258Z" fill="#343758"/>
<path d="M7.1713 18.9149C7.92389 18.9149 8.534 18.3048 8.534 17.5522C8.534 16.7996 7.92389 16.1895 7.1713 16.1895C6.4187 16.1895 5.80859 16.7996 5.80859 17.5522C5.80859 18.3048 6.4187 18.9149 7.1713 18.9149Z" fill="#343758"/>
<path d="M9.93162 14.0232C8.81351 13.6389 8.42916 13.569 7.03151 13.3244C6.75199 13.2894 6.5074 13.1846 6.33269 12.975L4.09646 10.8436C3.81694 10.564 3.43258 10.3893 3.04823 10.3544C2.66388 10.3195 2 10.2496 2 10.2496V11.0532C2 11.0532 2.52412 11.0882 2.80364 11.1231C2.97835 11.1231 3.15306 11.2279 3.25788 11.3677L4.5507 12.8003C4.65552 12.9051 4.58564 13.1147 4.41093 13.1147L2.17471 13.0798C2.06988 13.0798 2 13.1497 2 13.2545V17.2378C2 17.3426 2.06988 17.4125 2.17471 17.4125H4.83023C5.00493 17.4125 5.1447 17.2727 5.17964 17.098C5.38928 16.1896 6.22787 15.5257 7.20622 15.5257C8.21951 15.5257 9.0581 16.2594 9.2328 17.2028C9.26774 17.3426 9.37257 17.4125 9.51233 17.4125H10.0015C10.316 17.4125 10.5955 17.1679 10.6304 16.8884L10.8051 15.3859C10.8401 14.757 10.4907 14.2329 9.93162 14.0232Z" fill="#343758"/>
</svg>
