<svg width="36" height="36" viewBox="0 0 24 24" fill="none" xmlns="http://www.w3.org/2000/svg">
<path d="M17.1186 12.0197C17.9154 12.0197 18.5613 11.3738 18.5613 10.577C18.5613 9.78021 17.9154 9.13429 17.1186 9.13429C16.3218 9.13429 15.6759 9.78021 15.6759 10.577C15.6759 11.3738 16.3218 12.0197 17.1186 12.0197Z" fill="#343758"/>
<path d="M4.13437 13.7786C3.87746 13.6402 3.62054 13.5217 3.3241 13.4229L3.67983 14.2331C3.89722 14.747 4.49011 15.0039 5.00394 14.8063L5.59683 14.5889L5.73516 14.5296C5.79445 14.5098 5.85374 14.4505 5.85374 14.3715C5.12252 14.2529 4.60868 13.996 4.13437 13.7786Z" fill="#343758"/>
<path d="M4.86558 12.2964C5.4387 12.5731 5.93277 12.83 6.99996 12.83C8.06716 12.83 8.56123 12.5731 9.13435 12.2964C9.80629 11.9604 10.5573 11.5849 12 11.5849C12.5731 11.5849 13.0276 11.6442 13.4229 11.743L14.6482 11.2885C14.8261 11.2292 14.9249 11.0316 14.9051 10.8537C14.7865 9.84579 15.3596 8.87741 16.3478 8.50191C17.3557 8.12642 18.4624 8.54144 19.0158 9.43077C19.0948 9.54934 19.2332 9.60863 19.3715 9.54934L19.8458 9.37148C20.162 9.2529 20.3596 8.91693 20.2806 8.58096L19.8853 6.99993C19.747 6.40705 19.1936 5.97226 18.5612 5.99202C17.2964 6.03155 16.8814 6.09084 15.3794 6.38728C15.083 6.44657 14.7865 6.42681 14.5296 6.28847L11.4861 4.96436C11.0909 4.78649 10.6561 4.76673 10.2411 4.86554C8.58099 5.28056 7.1383 5.79439 5.55728 6.56515C5.04344 6.8023 4.64819 7.25685 4.50985 7.81021L3.91696 9.96437C3.8972 10.0632 3.81815 10.162 3.73909 10.2213L3.06716 10.6758C2.75095 10.8932 2.59285 11.249 2.61261 11.6047C3.67981 11.7035 4.31222 12.0197 4.86558 12.2964ZM5.30036 8.08689C5.30036 7.77069 5.47822 7.494 5.7549 7.37543C7.11854 6.74301 8.91696 6.07108 10.3004 5.71534C10.4782 5.67582 10.6759 5.69558 10.8537 5.77463L12.7114 6.74302C12.8695 6.82207 12.8498 7.05922 12.6917 7.11851L5.65609 9.56911C5.45846 9.6284 5.26083 9.49006 5.2806 9.29243L5.30036 8.08689Z" fill="#343758"/>
<path d="M19.1343 16.9999C18.7391 17.1975 18.4031 17.3556 17.8893 17.4545V19.1343C18.7786 19.0157 19.3517 18.739 19.8656 18.4821C20.4387 18.2054 20.9328 17.9485 22 17.9485V16.2885C20.5573 16.3082 19.8063 16.6837 19.1343 16.9999Z" fill="#343758"/>
<path d="M14.8656 16.9999C14.1937 16.6639 13.4427 16.2885 12 16.2885C10.5573 16.2885 9.80634 16.6639 9.1344 16.9999C8.56128 17.2766 8.06721 17.5335 7.00002 17.5335C6.52571 17.5335 6.16998 17.494 5.87354 17.4149V19.0948C6.18974 19.1541 6.56523 19.1936 7.00002 19.1936C8.4427 19.1936 9.19369 18.8181 9.86563 18.4821C10.4388 18.2054 10.9328 17.9485 12 17.9485C13.0474 17.9485 13.5613 18.2054 14.1344 18.4821C14.6482 18.739 15.2016 19.0157 16.0712 19.1343V17.4545C15.5771 17.3556 15.2411 17.1975 14.8656 16.9999Z" fill="#343758"/>
<path d="M20.3202 13.1461C19.8458 13.2845 19.4901 13.4624 19.1344 13.6402C18.5613 13.9169 18.0672 14.1738 17 14.1738C15.9328 14.1738 15.4387 13.9169 14.8656 13.6402C14.1937 13.3043 13.4427 12.9288 12 12.9288C10.5573 12.9288 9.80632 13.3043 9.13439 13.6402C8.56126 13.9169 8.06719 14.1738 7 14.1738C5.93281 14.1738 5.43874 13.9169 4.86561 13.6402C4.19368 13.3043 3.44269 12.9288 2 12.9288V14.5888C3.04743 14.5888 3.56126 14.8458 4.13439 15.1224C4.80632 15.4584 5.55731 15.8339 7 15.8339C8.44269 15.8339 9.19368 15.4584 9.86561 15.1224C10.4387 14.8458 10.9328 14.5888 12 14.5888C13.0474 14.5888 13.5613 14.8458 14.1344 15.1224C14.8063 15.4584 15.5573 15.8339 17 15.8339C18.4427 15.8339 19.1937 15.4584 19.8656 15.1224C20.0237 15.0434 20.1621 14.9841 20.3004 14.905V13.1461H20.3202Z" fill="#343758"/>
</svg>
