<svg width="36" height="36" viewBox="0 0 24 24" fill="none" xmlns="http://www.w3.org/2000/svg">
<path d="M18.4355 12.7101L15.3463 7.36833C15.2176 7.1109 14.9601 6.98219 14.6383 6.98219H8.45993C8.26686 6.98219 7.94507 7.1109 7.81635 7.36833L4.72715 12.7101C4.59844 12.9675 4.59844 13.2893 4.72715 13.4824L7.81635 18.8241C7.94507 19.0815 8.2025 19.2103 8.52429 19.2103H14.7027C14.9601 19.2103 15.2819 19.0815 15.4106 18.8241L18.4998 13.4824C18.5642 13.2249 18.5642 12.9031 18.4355 12.7101ZM11.6135 15.7349C10.1332 15.7349 8.91044 14.5121 8.91044 13.0319C8.91044 11.5516 10.1332 10.3288 11.6135 10.3288C13.0937 10.3288 14.3165 11.5516 14.3165 13.0319C14.2522 14.5765 13.0937 15.7349 11.6135 15.7349Z" fill="#343758"/>
<path d="M5.94999 5.17519L4.98461 4.27417C4.79154 4.0811 4.53411 3.95238 4.21232 4.01674L2.92515 4.33853C2.66772 4.46725 2.47464 4.66032 2.41028 4.98212L2.02413 6.20492C1.95978 6.46236 2.02413 6.78415 2.21721 6.97722L3.11823 7.9426C3.37566 8.13567 3.69745 8.20003 3.95488 8.13567L5.24205 7.81388C5.49948 7.74952 5.75691 7.49209 5.82127 7.23466L6.14306 5.94749C6.20742 5.69006 6.14306 5.36827 5.94999 5.17519ZM4.0836 6.84851C3.69745 6.84851 3.3113 6.52671 3.3113 6.07621C3.3113 5.69006 3.69745 5.30391 4.0836 5.30391C4.46975 5.30391 4.8559 5.6257 4.8559 6.07621C4.8559 6.52671 4.53411 6.84851 4.0836 6.84851Z" fill="#343758"/>
<path d="M21.7822 16.121C21.7178 15.9923 21.5891 15.9923 21.4604 16.0566C21.4604 16.0566 21.4604 16.0566 21.396 16.0566L21.2029 16.2497C21.1386 16.3141 21.0099 16.3141 20.9455 16.2497L20.7524 16.0566C20.6881 15.9923 20.6881 15.8635 20.7524 15.7992L20.9455 15.6061C21.0099 15.5418 21.0099 15.413 20.9455 15.2843C20.9455 15.2843 20.9455 15.2843 20.8811 15.22C20.3019 14.8982 19.594 14.9625 19.0791 15.3487C18.9504 15.413 18.9504 15.5418 19.0791 15.6705L19.7227 16.3141L19.2078 16.8289L19.1435 16.7646C19.0791 16.7002 18.9504 16.7646 18.9504 16.8289C18.886 16.8933 18.9504 17.022 19.0147 17.022L18.693 17.3438L18.6286 17.2794C18.5642 17.2151 18.4355 17.2794 18.4355 17.3438C18.3712 17.4081 18.4355 17.5369 18.4999 17.5369L18.1137 17.9874L18.0494 17.923C17.985 17.8587 17.8563 17.923 17.8563 17.9874C17.7919 18.0517 17.8563 18.1804 17.9207 18.1804C17.8563 18.3092 17.6632 18.824 17.985 19.0815C18.3712 19.3389 18.9504 18.9527 19.1435 18.8884L19.2722 18.9527H19.3365C19.4009 18.9527 19.4653 18.9527 19.4653 18.8884C19.5296 18.824 19.4653 18.6953 19.4009 18.6953L19.7227 18.3735L19.8514 18.4379H19.9158C19.9801 18.4379 20.0445 18.4379 20.0445 18.3735C20.1088 18.3092 20.0445 18.1804 19.9801 18.1804L20.3019 17.8587L20.4306 17.923H20.495C20.5593 17.923 20.6237 17.923 20.6237 17.8587C20.6881 17.7943 20.6237 17.6656 20.5593 17.6656L20.8168 17.4081L21.4604 18.0517C21.5247 18.1161 21.7178 18.1161 21.7822 18.0517C22.0396 17.4081 22.1039 16.7002 21.7822 16.121Z" fill="#343758"/>
</svg>
