<svg width="36" height="36" viewBox="0 0 24 24" fill="none" xmlns="http://www.w3.org/2000/svg">
<path d="M6.81538 18.8871C7.70965 18.8871 8.4346 18.1621 8.4346 17.2678C8.4346 16.3736 7.70965 15.6486 6.81538 15.6486C5.92111 15.6486 5.19617 16.3736 5.19617 17.2678C5.19617 18.1621 5.92111 18.8871 6.81538 18.8871Z" fill="#343758"/>
<path d="M17.6318 18.8871C18.5261 18.8871 19.251 18.1621 19.251 17.2678C19.251 16.3736 18.5261 15.6486 17.6318 15.6486C16.7375 15.6486 16.0126 16.3736 16.0126 17.2678C16.0126 18.1621 16.7375 18.8871 17.6318 18.8871Z" fill="#343758"/>
<path d="M20.9349 13.0362C19.5964 12.5828 19.143 12.4965 17.4374 12.2158C17.1136 12.1726 16.7897 12.0431 16.5738 11.784L13.8967 9.21486C13.5513 8.89102 13.1195 8.67513 12.6445 8.63195C10.7447 8.43764 9.01751 8.41605 7.07445 8.61036C6.44835 8.67513 5.86543 8.99897 5.49841 9.51712L4.05191 11.5465C3.98714 11.6545 3.87919 11.7192 3.77125 11.7408L2.88608 11.9567C2.34634 12.0863 1.97931 12.6044 2.0009 13.1657L2.10885 15.9508C2.15203 16.5769 2.64859 17.0734 3.27469 17.0734H3.98714H4.15986C4.26781 17.0734 4.35416 17.0087 4.37575 16.9007C4.50529 16.3826 5.02344 14.8065 6.81537 14.8065C7.98121 14.8065 8.97433 15.6269 9.2334 16.7064C9.27658 16.9223 9.47089 17.0734 9.68678 17.0734H14.7603C14.9762 17.0734 15.1489 16.9223 15.2137 16.7064C15.4728 15.6054 16.4443 14.8065 17.6317 14.8065C18.8407 14.8065 19.8339 15.6701 20.0714 16.8144C20.0929 16.9655 20.2441 17.095 20.3952 17.095H20.9781C21.3667 17.095 21.6906 16.8144 21.7337 16.4473L21.9281 14.6338C22.0144 13.8998 21.5826 13.2521 20.9349 13.0362ZM14.3069 11.9136L5.99497 11.8056C5.77907 11.8056 5.62795 11.5681 5.69272 11.3738L6.18928 10.1216C6.31881 9.79778 6.59948 9.58189 6.94491 9.5603C8.62889 9.40917 10.7663 9.40917 12.3639 9.5603C12.5798 9.58189 12.7741 9.66824 12.9036 9.84096L14.4797 11.5681C14.6092 11.6761 14.5012 11.9136 14.3069 11.9136Z" fill="#343758"/>
<path d="M21.2588 7.66057C20.5464 6.42997 20.6543 5.11301 20.6543 5.11301C18.9272 6.10613 18.9703 7.96283 18.9703 7.96283C18.409 7.59581 18.3226 6.86176 18.3226 6.86176C16.8977 8.32985 17.3079 10.4888 17.3079 10.4888C17.3511 11.0285 18.1068 11.1581 18.1068 11.1581L18.9703 11.3308C18.9703 11.1365 19.0135 10.8126 19.1862 10.532C19.4669 10.0786 19.6396 9.90589 19.8555 9.58204C19.8555 9.58204 20.3089 10.532 20.0714 11.5683L21.7338 11.9137C22.1008 10.6615 22.2088 9.30138 21.2588 7.66057Z" fill="#343758"/>
</svg>
