<svg width="36" height="36" viewBox="0 0 24 24" fill="none" xmlns="http://www.w3.org/2000/svg">
<path d="M20.5238 8.2869C20.261 8.2869 19.9981 8.34756 19.7554 8.44867C19.351 8.63066 18.7039 8.87332 18.3197 8.87332C17.9355 8.87332 17.2682 8.61044 16.884 8.44867C16.6413 8.34756 16.3784 8.2869 16.1155 8.2869H15.2056V9.01487C15.2056 9.37885 15.5089 9.68217 15.8729 9.68217C15.9538 9.68217 16.0347 9.72262 16.0953 9.78328C16.2571 9.92483 16.6413 10.2282 16.9446 10.4708C17.1873 10.6528 17.4906 10.673 17.7535 10.5113C17.895 10.4304 18.0366 10.3495 18.1175 10.2686C18.259 10.1675 18.441 10.1675 18.5623 10.2686C18.6635 10.3495 18.805 10.4304 18.9263 10.5113C19.1892 10.6528 19.4925 10.6326 19.7352 10.4708C20.0385 10.2484 20.4227 9.94505 20.5845 9.78328C20.6452 9.72262 20.7261 9.68217 20.8069 9.68217C21.1709 9.68217 21.4743 9.37885 21.4743 9.01487V8.2869H20.5238Z" fill="#343758"/>
<path d="M6.51027 19.085C7.34788 19.085 8.02689 18.406 8.02689 17.5683C8.02689 16.7307 7.34788 16.0517 6.51027 16.0517C5.67267 16.0517 4.99365 16.7307 4.99365 17.5683C4.99365 18.406 5.67267 19.085 6.51027 19.085Z" fill="#343758"/>
<path d="M16.6413 19.085C17.4789 19.085 18.1579 18.406 18.1579 17.5683C18.1579 16.7307 17.4789 16.0517 16.6413 16.0517C15.8036 16.0517 15.1246 16.7307 15.1246 17.5683C15.1246 18.406 15.8036 19.085 16.6413 19.085Z" fill="#343758"/>
<path d="M19.7352 13.605C18.4814 13.1804 18.0568 13.0995 16.4593 12.8366C16.156 12.7962 15.8526 12.6748 15.6504 12.4322L13.1429 10.0258C12.8194 9.72248 12.415 9.52026 11.9701 9.47982C10.1906 9.29782 8.57286 9.27761 6.75292 9.4596C6.16649 9.52027 5.62051 9.82359 5.27674 10.3089L3.9219 12.2097C3.86123 12.3108 3.76013 12.3715 3.65902 12.3917L2.82993 12.5939C2.32439 12.7153 1.98063 13.2006 2.00085 13.7263L2.10195 16.3349C2.1424 16.9213 2.60749 17.3864 3.19392 17.3864H3.86123H4.02301C4.12411 17.3864 4.205 17.3258 4.22522 17.2247C4.34655 16.7394 4.83187 15.2632 6.51026 15.2632C7.60223 15.2632 8.53242 16.0316 8.77508 17.0427C8.81552 17.2449 8.99752 17.3864 9.19973 17.3864H13.9518C14.154 17.3864 14.3158 17.2449 14.3765 17.0427C14.6191 16.0114 15.5291 15.2632 16.6413 15.2632C17.7737 15.2632 18.7039 16.072 18.9263 17.1438C18.9465 17.2853 19.0881 17.4067 19.2296 17.4067H19.7756C20.1396 17.4067 20.4429 17.1438 20.4834 16.8L20.6654 15.1014C20.7463 14.4139 20.3418 13.8072 19.7352 13.605ZM13.5272 12.5535L5.74184 12.4524C5.53963 12.4524 5.39807 12.2299 5.45874 12.048L5.92384 10.8751C6.04516 10.5718 6.30805 10.3696 6.63159 10.3493C8.20887 10.2078 10.2108 10.2078 11.7072 10.3493C11.9094 10.3696 12.0914 10.4505 12.2127 10.6122L13.6889 12.2299C13.8103 12.3311 13.7091 12.5535 13.5272 12.5535Z" fill="#343758"/>
<path d="M20.2003 8.75214L18.8455 9.35878C18.7444 9.39922 18.7039 9.54077 18.7646 9.64188C18.8859 9.80365 19.0679 10.0059 19.3106 10.0665C19.715 10.1879 20.5036 8.91391 20.2003 8.75214Z" fill="white"/>
<path d="M16.3987 8.75217L17.7535 9.35881C17.8546 9.39925 17.8951 9.5408 17.8344 9.64191C17.7131 9.80368 17.5311 10.0059 17.2884 10.0666C16.9042 10.1879 16.1156 8.91394 16.3987 8.75217Z" fill="white"/>
<path d="M21.4338 6.46703H21.3327C20.9687 5.05152 19.7554 4 18.3197 4C16.8839 4 15.6706 5.05152 15.3066 6.46703H15.2055C14.9022 6.46703 14.6595 6.7097 14.6595 7.01302C14.6595 7.31634 14.9022 7.559 15.2055 7.559H21.454C21.7573 7.559 22 7.31634 22 7.01302C21.9798 6.7097 21.7371 6.46703 21.4338 6.46703Z" fill="#343758"/>
</svg>
