<svg width="36" height="36" viewBox="0 0 24 24" fill="none" xmlns="http://www.w3.org/2000/svg">
<path d="M17.1394 8.14045C18.269 8.14045 19.2104 7.1991 19.2104 6.06949C19.2104 4.93988 18.269 3.99854 17.1394 3.99854C16.0098 3.99854 15.0685 4.93988 15.0685 6.06949C15.0685 7.1991 15.9628 8.14045 17.1394 8.14045Z" fill="#343758"/>
<path d="M17.4219 15.7654C17.3748 15.6242 17.2336 15.5301 17.0924 15.436L17.0454 15.3889L15.2568 9.31723C14.5037 9.69377 13.8919 10.2586 13.5624 11.0116L11.7739 14.8241C11.5856 15.2006 11.6326 15.6713 11.9151 16.0478C12.1504 16.3302 12.5269 16.4714 12.8564 16.4714H16.9512C17.3278 16.5185 17.6102 16.0949 17.4219 15.7654Z" fill="#343758"/>
<path d="M17.4689 8.98764H16.7629C16.5746 8.98764 16.3393 8.98764 16.151 9.03471L18.3632 16.5655C18.5044 16.9891 18.1749 17.4597 17.7042 17.4597H13.1858V20.0014H20.9989V12.5177C21.046 10.5879 19.4457 8.98764 17.4689 8.98764Z" fill="#343758"/>
<path d="M6.85951 11.7644V10.2583H8.83633V9.26989H6.85951V7.57547H5.82403V9.22282H3.94134V10.2112H5.82403V11.7644C4.22375 12.0469 3 13.4118 3 15.1062V20.0012H9.77767V15.1533C9.77767 13.4118 8.50686 11.9998 6.85951 11.7644Z" fill="#343758"/>
</svg>
