<svg width="141" height="140" viewBox="0 0 141 140" fill="none" xmlns="http://www.w3.org/2000/svg">
<path d="M82.0395 51.8833C82.0395 51.8833 80.4429 64.3536 83.2792 69.4738C86.1155 74.594 91.842 77.0799 91.842 77.0799L91.3502 80.536C91.3502 80.536 83.2657 77.3898 80.3957 74.2504C77.5257 71.1109 76.0772 70.9559 74.4199 71.5555L75.0936 66.2535L77.1821 52.7793L82.0395 51.8833Z" fill="#DCDEEA"/>
<path d="M56.3784 84.0392V90.2036L66.9085 92.5279C66.9085 92.5279 71.3549 74.6747 77.014 75.6381C76.6855 74.8491 76.1913 74.1401 75.5647 73.5589C74.9382 72.9777 74.1941 72.538 73.3828 72.2695C73.3828 72.2695 70.3308 73.6574 65.1096 72.2695C65.0962 72.2965 64.409 77.5918 56.3784 84.0392Z" fill="#BBF9C5"/>
<path d="M42.7022 103.523L38.9092 99.7298C38.8391 99.6599 38.7913 99.5706 38.7721 99.4734C38.7529 99.3762 38.7631 99.2755 38.8014 99.1841L42.8032 89.577C38.2624 85.9592 39.0709 79.2895 39.1113 79.0066L40.1084 79.1346C40.1084 79.202 39.3067 85.811 43.7128 88.9976C43.8053 89.0648 43.8722 89.1613 43.9028 89.2714C43.9334 89.3815 43.9258 89.4988 43.8812 89.604L39.839 99.2582L43.3893 102.809L42.7022 103.523Z" fill="#36354C"/>
<path d="M97.2318 109.155C97.2318 109.155 84.849 108.481 84.31 111.762C83.7711 115.043 85.233 125.331 85.233 125.331H69.4009L68.8755 98.6317C68.8755 98.6317 73.5308 101.731 79.1899 79.7207C79.1899 79.7207 86.2301 90.5674 98.2086 89.1863L97.7505 94.2458C97.7505 94.2458 85.9068 92.5279 81.6557 89.5299C77.4046 86.5319 78.8598 100.916 80.8539 102.916C82.8481 104.917 97.2318 106.204 97.2318 106.204V109.155Z" fill="#DCDEEA"/>
<path d="M52.3411 110.804L51.3354 110.903L52.7688 125.391L53.7744 125.292L52.3411 110.804Z" fill="#36354C"/>
<path d="M44.5611 107.52L43.5537 107.601L44.987 125.572L45.9944 125.492L44.5611 107.52Z" fill="#36354C"/>
<path d="M65.4529 112.793H64.4424V125.539H65.4529V112.793Z" fill="#36354C"/>
<path d="M42.2977 104.008C41.341 106.925 42.7423 107.754 43.8135 108.427C48.8663 111.594 56.6881 113.548 68.4645 113.763C69.0338 113.775 69.5993 113.67 70.1256 113.452C70.6519 113.235 71.1275 112.911 71.5224 112.501C71.9174 112.091 72.2231 111.603 72.4203 111.069C72.6175 110.535 72.7021 109.966 72.6684 109.398L71.9543 97.4056C71.9543 97.4056 71.166 98.7194 70.4519 98.753C69.7378 98.7867 53.0905 96.7319 46.3332 94.219L42.2977 104.008Z" fill="#BBF9C5"/>
<path d="M68.5388 114.268H68.4512C57.1733 114.06 49.0282 112.288 43.524 108.879C42.3787 108.165 40.7281 107.127 41.7926 103.873V103.839L46.0167 93.6328L46.4681 93.8012C53.0974 96.2535 69.327 98.3016 70.3577 98.3016C70.6137 98.3016 71.146 97.6885 71.4559 97.1698L72.298 95.7752L73.1132 109.391C73.1541 110.027 73.062 110.665 72.8428 111.263C72.6235 111.862 72.282 112.408 71.8399 112.867C71.409 113.306 70.8955 113.656 70.329 113.897C69.7625 114.137 69.1542 114.264 68.5388 114.268ZM42.7762 104.163C41.9678 106.649 43.0188 107.309 44.0361 107.949C49.4257 111.318 57.3822 113.036 68.4714 113.238C68.973 113.244 69.4706 113.148 69.9339 112.956C70.3973 112.764 70.8166 112.479 71.1662 112.119C71.5107 111.764 71.7772 111.341 71.9489 110.877C72.1206 110.413 72.1936 109.918 72.1633 109.424L71.4896 98.7395C71.214 99.028 70.8523 99.2195 70.4588 99.2852C69.711 99.3391 53.7778 97.3786 46.5826 94.8859L42.7762 104.163Z" fill="#36354C"/>
<path d="M53.7105 96.166L50.6047 100.761C53.185 102.741 50.4564 104.392 50.4564 104.392L45.8955 101.421L49.0417 95.0813" fill="white"/>
<path d="M50.4564 104.897C50.3583 104.898 50.2622 104.87 50.1802 104.816L45.6192 101.845C45.5092 101.777 45.4297 101.669 45.3971 101.543C45.3645 101.418 45.3813 101.285 45.4441 101.172L48.5903 94.832L49.4998 95.2767L46.549 101.219L50.443 103.752C50.8459 103.466 51.1195 103.033 51.2043 102.546C51.2312 102.097 50.928 101.625 50.2947 101.131C50.1958 101.053 50.13 100.94 50.11 100.815C50.0901 100.691 50.1175 100.563 50.187 100.457L53.2928 95.8628L54.1282 96.4287L51.2784 100.646C51.5731 100.88 51.8106 101.179 51.9728 101.518C52.1351 101.858 52.2178 102.23 52.2149 102.607C52.1407 103.954 50.7731 104.769 50.7124 104.803C50.6372 104.857 50.5487 104.889 50.4564 104.897Z" fill="#36354C"/>
<path d="M69.7313 99.3391C64.975 99.3391 47.0745 95.3979 46.0438 94.6568C45.013 93.9157 42.8976 90.5607 42.8706 89.5636C42.8637 89.4601 42.8808 89.3564 42.9205 89.2606C42.9602 89.1648 43.0215 89.0794 43.0997 89.0112C43.2142 88.9236 43.5376 88.6676 46.8724 88.553C45.8888 87.6772 45.1612 86.7206 45.6059 86.0603C45.6927 85.9432 45.8053 85.8477 45.935 85.7811C46.0647 85.7145 46.2079 85.6787 46.3537 85.6763C47.7482 85.5618 51.5951 87.0574 53.6566 89.0987L66.9287 92.0361C67.6024 89.4626 70.8092 77.7737 75.1007 75.5438C75.4941 75.3262 75.9308 75.1989 76.3794 75.1709C76.828 75.1429 77.2772 75.2151 77.6945 75.3821C79.1632 75.9615 79.8234 77.5245 79.655 80.0307C79.2238 86.3096 73.0123 98.6923 70.56 99.2852C70.2865 99.3331 70.0087 99.3512 69.7313 99.3391ZM43.9351 89.7792C44.2585 90.6954 45.8215 93.2623 46.6299 93.8214C47.8156 94.5558 67.8651 98.8742 70.3309 98.2746C71.7591 97.9243 78.1931 86.606 78.6512 79.9363C78.7859 77.9152 78.3413 76.6958 77.3038 76.2983C77.0191 76.1844 76.7123 76.1367 76.4065 76.1589C76.1007 76.181 75.8039 76.2725 75.5387 76.4263C71.2202 78.6698 67.7978 92.5953 67.7641 92.7435C67.7321 92.8712 67.6515 92.9814 67.5396 93.0506C67.4276 93.1198 67.293 93.1426 67.1645 93.114L53.2659 90.0419C53.1674 90.024 53.0775 89.9743 53.0099 89.9005C51.0696 87.8793 47.5192 86.6599 46.5221 86.6599C47.0884 87.4119 47.7706 88.0691 48.5432 88.6069C48.6273 88.6702 48.6899 88.7578 48.7224 88.8578C48.755 88.9579 48.7559 89.0655 48.7251 89.1661C48.6934 89.268 48.6298 89.357 48.5437 89.4201C48.4576 89.4832 48.3535 89.517 48.2468 89.5165C46.806 89.5292 45.3668 89.6169 43.9351 89.7792Z" fill="#36354C"/>
<path d="M69.6503 73.4823C68.4831 73.4973 67.329 73.2365 66.2817 72.721L66.7398 71.825C69.4818 73.2263 72.9716 71.9463 73.9148 71.5555L74.7704 64.906L75.7742 65.034L74.8782 71.9665C74.8674 72.0492 74.8367 72.128 74.7885 72.1961C74.7404 72.2642 74.6764 72.3195 74.602 72.3572C73.0446 73.0636 71.36 73.4463 69.6503 73.4823Z" fill="#36354C"/>
<path d="M67.993 68.0319H67.582L67.6764 67.0281C68.8185 67.076 69.9354 66.6828 70.7956 65.9299L71.4693 66.6643C70.5016 67.5052 69.2743 67.988 67.993 68.0319Z" fill="#36354C"/>
<path d="M67.9388 67.1023C66.7329 66.9945 65.5404 66.2736 64.7858 64.2525C62.7647 58.8629 67.8579 52.8399 71.341 52.7995C71.341 52.7995 71.9541 56.2826 75.1811 57.0978C75.1982 58.2865 75.0784 59.4733 74.8241 60.6347C74.9931 60.5449 75.1794 60.4921 75.3705 60.4798C75.5615 60.4676 75.7529 60.4962 75.9321 60.5638C76.1112 60.6314 76.2738 60.7363 76.4092 60.8717C76.5446 61.0071 76.6496 61.1697 76.7172 61.3489C77.2831 62.6963 74.8241 62.5278 74.8241 62.5278L74.6556 66.469C76.0913 66.0453 77.3649 65.1967 78.309 64.035C79.253 62.8733 79.8231 61.453 79.9442 59.961C80.3552 54.6926 76.9732 50.8053 73.4901 51.3174C73.0401 50.8555 72.4669 50.5326 71.8388 50.3869C71.2106 50.2412 70.5538 50.2789 69.9464 50.4954C67.7097 51.2096 65.6077 53.4058 62.4346 60.3787C59.9014 65.9301 54.3501 69.0426 54.3501 69.0426C56.2028 75.6719 56.1152 84.7467 56.1152 84.7467C60.4202 82.7256 64.833 76.487 66.8272 72.4515L67.9388 67.1023Z" fill="#36354C"/>
<path d="M48.4489 86.7407L47.6067 86.1882C47.6067 86.1882 49.3045 83.581 48.8598 81.6205C48.496 80.0104 48.1322 79.6533 46.7781 78.3328C46.4278 77.9892 46.0168 77.5917 45.5385 77.0999C43.6184 75.1462 42.2238 73.8662 41.7859 73.4754H35.0488V72.4648H41.988C42.1102 72.465 42.2278 72.5107 42.3181 72.5928C42.3181 72.5928 43.9216 74.0009 46.2661 76.3925C46.7377 76.8776 47.1419 77.2684 47.4855 77.6052C48.8329 78.9526 49.4258 79.4916 49.857 81.3982C50.3892 83.7831 48.5297 86.6194 48.4489 86.7407Z" fill="#36354C"/>
<path d="M45.8147 86.7947C44.3056 86.0873 44.1438 83.1634 44.1371 82.1259C42.5202 81.3242 36.0122 78.0096 34.9747 75.8806C33.8294 73.5429 35.352 67.648 35.4194 67.3987C35.4194 67.3313 37.3125 60.7425 44.4606 60.345L44.5144 61.3555C42.6819 61.4475 40.9223 62.1024 39.4756 63.2309C38.0289 64.3593 36.9653 65.9065 36.4299 67.6614C36.0122 69.2581 35.0825 73.7719 35.9179 75.4427C36.7533 77.1135 42.655 80.28 44.8984 81.3579C44.9866 81.4001 45.0605 81.4673 45.1108 81.5511C45.1611 81.635 45.1857 81.7318 45.1814 81.8295C45.1814 82.9681 45.3835 85.4608 46.2795 85.8717L45.8147 86.7947Z" fill="#36354C"/>
<path d="M58.9787 67.156C58.9383 67.0886 55.4081 61.0926 50.7258 61.0926C50.553 61.0828 50.3798 61.0828 50.207 61.0926L50.1128 60.0821C55.6843 59.5499 59.6861 66.3678 59.8546 66.6575L58.9787 67.156Z" fill="#36354C"/>
<path d="M56.3781 90.1565L55.3676 90.0622C56.0089 83.0659 55.5061 76.0118 53.8787 69.1772C53.8426 69.06 53.8516 68.9335 53.904 68.8226C53.9563 68.7117 54.0482 68.6243 54.1616 68.5776L56.4455 67.5806L56.8498 68.5035L54.9566 69.3322C56.5173 76.1565 56.997 83.1834 56.3781 90.1565Z" fill="#36354C"/>
<path d="M47.6469 66.4217C47.1963 66.4415 46.7468 66.3611 46.3309 66.1864C45.9151 66.0117 45.5431 65.7469 45.2418 65.4112C43.8472 63.8482 44.1302 60.931 44.2717 59.9676C43.704 59.8295 43.1788 59.5542 42.7423 59.1659C41.6442 58.1756 41.1524 56.4711 41.2467 53.884C41.341 51.297 42.8502 49.9024 45.3833 49.7677C47.4044 49.6734 49.9578 50.5492 50.0992 51.7282C50.4159 53.8908 51.231 63.1812 49.1897 65.7211C49.0455 65.9115 48.8632 66.0698 48.6544 66.1858C48.4456 66.3018 48.2149 66.373 47.977 66.3948L47.6469 66.4217ZM45.2687 60.1226C45.1475 60.958 44.8982 63.4911 45.9963 64.7442C46.2393 65.0056 46.5425 65.2036 46.8795 65.321C47.2165 65.4384 47.5771 65.4717 47.9298 65.4179C47.9905 65.4179 48.1859 65.4179 48.4285 65.108C49.8971 63.2755 49.6681 55.6761 49.1022 51.8966C48.9742 51.4789 46.9732 50.5492 45.006 50.8389C44.6191 50.8569 44.2398 50.9517 43.89 51.1179C43.5402 51.284 43.2269 51.5182 42.9686 51.8066C42.7102 52.0951 42.5119 52.4321 42.3852 52.7981C42.2584 53.164 42.2057 53.5515 42.2303 53.9379C42.1495 56.1544 42.5402 57.6703 43.3958 58.4383C44.1099 59.112 45.1744 59.2804 46.8452 59.0514L46.98 60.0485C46.4133 60.1281 45.8402 60.1529 45.2687 60.1226Z" fill="#36354C"/>
<path d="M78.0309 76.7834C77.716 75.8287 77.2135 74.9466 76.5529 74.1888C75.8923 73.431 75.0869 72.8129 74.1841 72.3707L74.5411 71.4275C74.6624 71.4746 77.5526 72.5863 78.9809 76.4331L78.0309 76.7834Z" fill="#36354C"/>
<path d="M43.1737 53.1564C45.4768 53.1564 47.3439 51.781 47.3439 50.0843C47.3439 48.3876 45.4768 47.0122 43.1737 47.0122C40.8705 47.0122 39.0034 48.3876 39.0034 50.0843C39.0034 51.781 40.8705 53.1564 43.1737 53.1564Z" fill="#36354C"/>
<path d="M48.3746 48.2991C47.5537 48.3081 46.7592 48.59 46.1162 49.1003C45.4732 49.6106 45.0183 50.3203 44.823 51.1176C44.6277 51.915 44.7032 52.7546 45.0376 53.5043C45.3721 54.254 45.9463 54.8711 46.6701 55.2585C46.6659 54.849 46.8104 54.4519 47.0768 54.1409C47.3431 53.8299 47.7133 53.6262 48.1186 53.5675C48.9135 53.5675 49.5603 54.4163 49.5805 55.474C50.3937 55.1789 51.0776 54.6081 51.5135 53.8609C51.9494 53.1137 52.1095 52.2373 51.9662 51.3842C51.8228 50.5312 51.385 49.7553 50.7288 49.1916C50.0726 48.628 49.2395 48.3121 48.3746 48.2991Z" fill="#36354C"/>
<path d="M41.695 69.4255L41.4263 72.9185L42.4339 72.996L42.7026 69.503L41.695 69.4255Z" fill="#36354C"/>
<path d="M95.6353 90.0554C91.748 90.0554 85.1861 88.1959 78.7926 80.0306L79.5876 79.4041C87.5778 89.5905 95.615 89.577 98.0404 88.7079C98.9229 88.2296 102.251 79.7476 102.756 70.4774C103.073 65.0878 102.48 57.9802 97.8854 54.7329C87.8337 47.6388 76.7647 53.5337 76.6569 53.5944L76.1719 52.7118C76.2864 52.6444 87.8876 46.4396 98.4715 53.911C104.596 58.2295 104.178 68.6045 103.39 74.4051C102.426 81.4117 99.8864 89.1122 98.3436 89.6646C97.4681 89.9413 96.5533 90.0733 95.6353 90.0554Z" fill="#36354C"/>
<path d="M102.042 78.306C95.3049 74.1695 92.3676 75.4293 92.3406 75.4428C92.2606 75.4789 92.1725 75.4936 92.0851 75.4853C91.9977 75.477 91.9139 75.4461 91.8421 75.3956C91.7695 75.3445 91.7115 75.2754 91.6737 75.1951C91.6359 75.1148 91.6197 75.026 91.6265 74.9375L92.2395 67.4863L93.2501 67.5672L92.691 74.3042C94.0384 74.0954 97.2654 74.1695 102.568 77.4302L102.042 78.306Z" fill="#36354C"/>
<path d="M91.3371 80.5359C91.3371 80.5359 82.5317 76.6486 80.3826 74.2502C75.9631 69.3322 71.9478 72.7007 71.9478 72.7007C72.169 73.2346 72.498 73.7172 72.9142 74.1183C73.3303 74.5194 73.8247 74.8303 74.3664 75.0317C76.1922 75.7054 77.964 74.9711 78.7657 77.0529" fill="white"/>
<path d="M91.1685 80.9941C90.8047 80.8391 82.2352 77.0394 80.0389 74.5939C76.6703 70.8144 73.5848 72.2494 72.6281 72.8692C73.0554 73.6501 73.7523 74.2488 74.5886 74.5535C75.1082 74.725 75.6466 74.8335 76.192 74.8769C77.3912 75.0251 78.6308 75.1733 79.2843 76.8576L78.3411 77.2281C77.9099 76.103 77.1756 76.0154 76.0707 75.8807C75.4472 75.8277 74.8321 75.701 74.2383 75.5034C73.6321 75.2732 73.08 74.9204 72.6163 74.4672C72.1527 74.0139 71.7874 73.4699 71.5434 72.8692C71.5102 72.7723 71.5072 72.6675 71.5349 72.5689C71.5626 72.4702 71.6196 72.3823 71.6984 72.3168C71.7388 72.2764 76.1449 68.6922 80.8271 73.9135C82.8483 76.2041 91.5256 80.0307 91.6064 80.0711L91.1685 80.9941Z" fill="#36354C"/>
<path d="M91.5729 74.8879L90.7212 80.8572L91.7216 80.9999L92.5733 75.0306L91.5729 74.8879Z" fill="#36354C"/>
<path d="M94.146 106.736C85.8864 106.736 73.2611 104.985 72.5874 104.89L72.7289 103.893C72.9175 103.893 91.2019 106.453 98.168 105.51L97.6695 89.1997H98.68L99.1921 105.955C99.197 106.076 99.1572 106.196 99.0802 106.29C99.0033 106.384 98.8945 106.447 98.7744 106.467C97.2412 106.68 95.6935 106.77 94.146 106.736Z" fill="#36354C"/>
<path d="M97.7234 106.231H96.7129V125.338H97.7234V106.231Z" fill="#36354C"/>
<path d="M83.4202 111.751L82.4097 111.842L83.9989 129.5L85.0094 129.409L83.4202 111.751Z" fill="#36354C"/>
<path d="M68.9695 113.763H67.959V125.337H68.9695V113.763Z" fill="#36354C"/>
<path d="M84.0407 49.323C83.7126 50.948 83.5612 52.6037 83.5893 54.2613C83.7375 56.1813 84.8289 58.5393 87.3418 58.8762C89.6459 59.1861 92.462 57.293 92.1319 51.425L91.4582 34.1983C91.4582 34.1983 83.3737 29.3611 80.8607 33.2012C78.3478 37.0413 76.2796 46.2576 80.9349 48.7908C84.2024 50.5626 88.2311 48.299 88.2311 48.299" fill="white"/>
<path d="M87.7998 59.4152C87.6152 59.4139 87.4308 59.4026 87.2474 59.3816C84.4245 59.0043 83.2051 56.4105 83.0568 54.3018C83.0091 52.8501 83.1197 51.3976 83.387 49.9699C82.4309 49.9385 81.495 49.6872 80.6517 49.2355C79.9452 48.8298 79.3341 48.2769 78.8598 47.6143C78.3856 46.9518 78.0593 46.1951 77.9031 45.3954C76.9329 41.4947 78.4352 35.8827 80.389 32.9251C83.1579 28.7279 91.3233 33.5584 91.6736 33.7672C91.7443 33.8109 91.8034 33.8711 91.8456 33.9427C91.8879 34.0143 91.9121 34.0951 91.9161 34.1782L92.5898 51.4049C92.8121 55.3595 91.6332 57.3267 90.6092 58.2834C89.8495 59.0023 88.8456 59.4067 87.7998 59.4152ZM84.4312 49.9497C84.1624 51.3568 84.0472 52.789 84.0876 54.221C84.2224 55.9524 85.1723 58.0813 87.4023 58.3777C87.8643 58.4366 88.3335 58.3923 88.7762 58.2478C89.2189 58.1033 89.624 57.8624 89.9623 57.5423C90.8247 56.7339 91.8218 55.0227 91.6197 51.479L90.946 34.5285C89.6458 33.7942 83.2792 30.4863 81.2648 33.5112C79.4189 36.3004 78.0311 41.6563 78.9136 45.1798C79.038 45.8414 79.3025 46.4687 79.6895 47.0195C80.0764 47.5703 80.5768 48.0319 81.157 48.3732C84.1348 49.9901 87.8941 47.9016 87.9682 47.8814L88.46 48.7639C87.2069 49.4174 85.8385 49.8201 84.4312 49.9497Z" fill="#36354C"/>
<path d="M90.1108 41.3195C92.6856 41.3195 94.7728 38.8974 94.7728 35.9096C94.7728 32.9218 92.6856 30.4998 90.1108 30.4998C87.536 30.4998 85.4487 32.9218 85.4487 35.9096C85.4487 38.8974 87.536 41.3195 90.1108 41.3195Z" fill="#36354C"/>
<path d="M85.4485 35.9029C85.4485 35.9029 80.0588 39.642 76.9261 35.2292C73.7933 30.8165 78.8933 26.2083 83.6025 28.3035C88.3117 30.3988 90.5956 30.5133 90.5956 30.5133L85.4485 35.9029Z" fill="#36354C"/>
<path d="M87.3955 40.3022L87.6986 44.5937C87.6986 44.5937 88.7294 40.9086 90.5956 41.3195C92.4618 41.7305 90.1711 44.8497 91.9834 47.7197L93.8631 39.0693L87.3955 40.3022Z" fill="#36354C"/>
<path d="M84.1819 29.6307C84.1819 29.6307 81.6488 26.5586 84.4514 25.6761C87.254 24.7935 91.1884 30.8636 91.1884 30.8636L84.1819 29.6307Z" fill="#36354C"/>
<path d="M33.6744 96.9947C33.6009 96.9945 33.5284 96.9781 33.462 96.9467C33.3956 96.9152 33.337 96.8695 33.2903 96.8128C33.0702 96.5568 32.8457 96.294 32.6166 96.0246C32.5332 95.9207 32.4942 95.7881 32.5081 95.6556C32.522 95.5231 32.5876 95.4015 32.6907 95.3171C32.7957 95.2334 32.9294 95.1942 33.063 95.2081C33.1966 95.2219 33.3193 95.2877 33.4049 95.3913C33.6137 95.654 33.8225 95.91 34.0381 96.166C34.1227 96.2702 34.163 96.4033 34.1504 96.5369C34.1378 96.6704 34.0733 96.7937 33.9708 96.8802C33.8861 96.948 33.7826 96.988 33.6744 96.9947Z" fill="#36354C"/>
<path d="M30.2854 92.4336C30.2011 92.4344 30.1179 92.4138 30.0436 92.3738C29.9694 92.3337 29.9066 92.2755 29.861 92.2045C29.4904 91.6386 29.1334 91.0727 28.7831 90.4933C28.7134 90.378 28.6923 90.2398 28.7245 90.1091C28.7567 89.9783 28.8396 89.8657 28.9548 89.796C29.0701 89.7263 29.2083 89.7053 29.3391 89.7375C29.4698 89.7697 29.5824 89.8525 29.6521 89.9678C29.9889 90.5404 30.3258 91.0996 30.7031 91.6521C30.769 91.7614 30.7911 91.8917 30.7649 92.0167C30.7386 92.1417 30.666 92.2521 30.5616 92.3258C30.4818 92.3875 30.3859 92.4249 30.2854 92.4336ZM111.575 91.5106C111.479 91.5108 111.385 91.4827 111.305 91.4297C111.198 91.3592 111.121 91.2502 111.091 91.125C111.061 90.9997 111.08 90.8678 111.144 90.756C111.494 90.1969 111.817 89.6242 112.161 89.0516C112.191 88.9888 112.233 88.9328 112.286 88.8871C112.338 88.8415 112.399 88.8072 112.466 88.7863C112.532 88.7654 112.602 88.7584 112.671 88.7658C112.74 88.7732 112.807 88.7947 112.867 88.8291C112.928 88.8635 112.98 88.91 113.022 88.9657C113.064 89.0213 113.093 89.085 113.109 89.1526C113.125 89.2203 113.127 89.2906 113.114 89.3589C113.102 89.4273 113.076 89.4924 113.037 89.5501C112.707 90.1362 112.363 90.7156 111.999 91.2882C111.953 91.358 111.89 91.4149 111.815 91.4538C111.741 91.4926 111.659 91.5122 111.575 91.5106ZM27.0045 86.6127C26.9086 86.6122 26.8149 86.5847 26.7339 86.5335C26.6529 86.4823 26.5879 86.4094 26.5463 86.323C26.2566 85.7167 25.9804 85.1036 25.7109 84.4771C25.6833 84.4153 25.6683 84.3486 25.667 84.2809C25.6656 84.2133 25.678 84.146 25.7031 84.0832C25.7282 84.0203 25.7657 83.9632 25.8134 83.9151C25.861 83.8671 25.9178 83.8291 25.9804 83.8034C26.0416 83.7746 26.108 83.7586 26.1756 83.7563C26.2433 83.754 26.3107 83.7655 26.3737 83.7901C26.4367 83.8146 26.4941 83.8518 26.5423 83.8992C26.5905 83.9467 26.6285 84.0035 26.6541 84.0661C26.9169 84.6792 27.1931 85.2788 27.476 85.8784C27.5045 85.9385 27.5208 86.0037 27.524 86.0701C27.5272 86.1366 27.5172 86.203 27.4947 86.2656C27.4722 86.3282 27.4375 86.3857 27.3927 86.4349C27.3479 86.4841 27.2937 86.5239 27.2335 86.5521C27.1634 86.5912 27.0847 86.6121 27.0045 86.6127ZM114.721 85.6157C114.649 85.6169 114.577 85.6007 114.512 85.5685C114.451 85.5415 114.395 85.5026 114.349 85.454C114.303 85.4053 114.267 85.348 114.243 85.2853C114.219 85.2226 114.208 85.1558 114.21 85.0887C114.213 85.0217 114.228 84.9557 114.256 84.8948C114.532 84.2952 114.788 83.6821 115.038 83.069C115.06 83.0047 115.096 82.9457 115.142 82.8954C115.188 82.8452 115.244 82.8048 115.306 82.7767C115.368 82.7486 115.436 82.7334 115.504 82.732C115.572 82.7306 115.64 82.743 115.703 82.7685C115.766 82.794 115.824 82.832 115.872 82.8803C115.92 82.9286 115.958 82.9862 115.983 83.0495C116.009 83.1128 116.021 83.1807 116.019 83.2489C116.018 83.3171 116.002 83.3842 115.974 83.4463C115.725 84.0729 115.455 84.6927 115.179 85.3125C115.142 85.3974 115.082 85.4704 115.006 85.5238C114.93 85.5772 114.841 85.609 114.748 85.6157H114.721ZM24.5454 80.4012C24.4387 80.4017 24.3346 80.3679 24.2485 80.3048C24.1624 80.2418 24.0988 80.1527 24.0671 80.0508C23.8583 79.4108 23.6696 78.7641 23.4877 78.1038C23.4529 77.9743 23.4709 77.8362 23.5379 77.72C23.6049 77.6037 23.7152 77.5189 23.8447 77.484C23.9743 77.4492 24.1124 77.4672 24.2286 77.5342C24.3449 77.6011 24.4297 77.7115 24.4646 77.8411C24.6397 78.4833 24.8283 79.1166 25.0305 79.7409C25.0708 79.8696 25.0588 80.009 24.997 80.1288C24.9352 80.2486 24.8286 80.3392 24.7003 80.381C24.6499 80.3947 24.5977 80.4015 24.5454 80.4012ZM117.039 79.3502H116.897C116.768 79.3112 116.659 79.2228 116.595 79.1042C116.531 78.9856 116.516 78.8464 116.554 78.7169C116.742 78.0904 116.917 77.4503 117.072 76.8036C117.106 76.6742 117.189 76.5633 117.304 76.4951C117.419 76.4269 117.556 76.407 117.685 76.4398C117.75 76.4547 117.812 76.4826 117.866 76.5218C117.92 76.561 117.966 76.6106 118 76.6678C118.035 76.725 118.058 76.7885 118.067 76.8547C118.077 76.9208 118.073 76.9882 118.056 77.0528C117.894 77.7266 117.712 78.3598 117.524 79.0066C117.489 79.1072 117.423 79.1944 117.336 79.256C117.249 79.3176 117.145 79.3505 117.039 79.3502ZM22.9555 73.9134C22.8365 73.9136 22.7212 73.8718 22.6301 73.7954C22.5389 73.719 22.4776 73.6129 22.4569 73.4957C22.3402 72.8354 22.2391 72.1617 22.1538 71.4746C22.1379 71.406 22.1364 71.335 22.1496 71.2659C22.1628 71.1968 22.1902 71.1312 22.2302 71.0733C22.2702 71.0155 22.3217 70.9666 22.3817 70.9298C22.4416 70.893 22.5086 70.8691 22.5783 70.8597C22.648 70.8503 22.7189 70.8555 22.7865 70.8751C22.854 70.8946 22.9168 70.9281 22.9707 70.9733C23.0246 71.0185 23.0684 71.0744 23.0995 71.1375C23.1305 71.2006 23.148 71.2695 23.1509 71.3398C23.2407 72 23.3417 72.6535 23.454 73.3003C23.4656 73.3658 23.4642 73.4329 23.4498 73.4978C23.4354 73.5628 23.4084 73.6242 23.3702 73.6787C23.332 73.7331 23.2835 73.7795 23.2274 73.8152C23.1712 73.8508 23.1086 73.875 23.0431 73.8864L22.9555 73.9134ZM118.48 72.822H118.406C118.274 72.802 118.155 72.7306 118.076 72.6232C117.996 72.5159 117.963 72.3815 117.982 72.2493C118.083 71.5756 118.17 70.9423 118.238 70.2821C118.255 70.1497 118.323 70.0292 118.427 69.9461C118.531 69.8631 118.664 69.8241 118.797 69.8374C118.863 69.8442 118.926 69.8638 118.984 69.8953C119.042 69.9268 119.093 69.9694 119.135 70.0208C119.176 70.0722 119.207 70.1313 119.225 70.1946C119.243 70.258 119.249 70.3243 119.242 70.3899C119.168 71.0636 119.08 71.7373 118.986 72.411C118.963 72.5281 118.9 72.6335 118.808 72.7087C118.716 72.784 118.6 72.8241 118.48 72.822ZM22.2548 67.2976C22.1242 67.2977 21.9986 67.2472 21.9045 67.1568C21.8103 67.0664 21.7547 66.943 21.7495 66.8125C21.7495 66.1388 21.7495 65.5257 21.7495 64.8722V64.7914C21.7495 64.6574 21.8028 64.5289 21.8975 64.4341C21.9923 64.3393 22.1208 64.2861 22.2548 64.2861C22.3888 64.2861 22.5174 64.3393 22.6121 64.4341C22.7069 64.5289 22.7601 64.6574 22.7601 64.7914V64.8722C22.7601 65.5122 22.7601 66.1455 22.7601 66.7788C22.7637 66.8451 22.7539 66.9114 22.7313 66.9737C22.7086 67.0361 22.6736 67.0932 22.6282 67.1417C22.5829 67.1902 22.5283 67.229 22.4675 67.2558C22.4068 67.2825 22.3414 67.2968 22.275 67.2976H22.2548ZM119.04 66.1927C118.907 66.1892 118.781 66.1334 118.689 66.0376C118.596 65.9418 118.546 65.8135 118.548 65.6807V64.8722C118.548 64.4815 118.548 64.084 118.548 63.6932C118.546 63.6263 118.557 63.5597 118.582 63.4973C118.606 63.4349 118.642 63.3779 118.689 63.3296C118.735 63.2813 118.79 63.2428 118.852 63.2161C118.913 63.1895 118.979 63.1754 119.046 63.1745C119.178 63.176 119.304 63.2277 119.4 63.3191C119.495 63.4104 119.551 63.5346 119.558 63.6663C119.558 64.0705 119.558 64.468 119.558 64.8722V65.6941C119.548 65.824 119.489 65.945 119.392 66.0327C119.296 66.1203 119.17 66.1679 119.04 66.1657V66.1927ZM22.4502 60.5942H22.3963C22.2633 60.5806 22.141 60.5148 22.0564 60.4112C21.9718 60.3077 21.9317 60.1748 21.9449 60.0417C22.0055 59.368 22.0864 58.6943 22.174 58.0206C22.1828 57.9547 22.2045 57.8912 22.2379 57.8337C22.2713 57.7762 22.3157 57.7258 22.3686 57.6855C22.4215 57.6451 22.4818 57.6156 22.5461 57.5985C22.6104 57.5815 22.6774 57.5772 22.7433 57.5861C22.8092 57.5949 22.8727 57.6167 22.9302 57.6501C22.9877 57.6835 23.0381 57.7279 23.0784 57.7807C23.1188 57.8336 23.1483 57.8939 23.1653 57.9582C23.1824 58.0224 23.1866 58.0895 23.1778 58.1554C23.0902 58.8291 23.0094 59.4624 22.9487 60.1293C22.9386 60.2551 22.8819 60.3725 22.7897 60.4585C22.6974 60.5445 22.5763 60.5929 22.4502 60.5942ZM118.703 59.4893C118.579 59.4888 118.46 59.4434 118.367 59.3617C118.274 59.2799 118.214 59.1673 118.197 59.0447C118.123 58.371 118.029 57.7309 117.928 57.0774C117.906 56.9452 117.939 56.8099 118.017 56.7013C118.095 56.5927 118.213 56.5196 118.346 56.4981C118.479 56.4786 118.614 56.5122 118.722 56.5916C118.831 56.671 118.903 56.7899 118.925 56.9225C119.033 57.5962 119.12 58.2699 119.201 58.9436C119.21 59.0097 119.205 59.0767 119.187 59.1409C119.169 59.205 119.138 59.2649 119.097 59.317C119.055 59.3692 119.004 59.4124 118.946 59.4444C118.887 59.4763 118.823 59.4961 118.757 59.5028L118.703 59.4893ZM23.5281 54.0053C23.4902 54.0123 23.4515 54.0123 23.4136 54.0053C23.3486 53.9911 23.2871 53.964 23.2327 53.9256C23.1783 53.8872 23.1323 53.8383 23.0971 53.7817C23.0619 53.7252 23.0384 53.6623 23.028 53.5965C23.0176 53.5308 23.0204 53.4636 23.0363 53.399C23.1913 52.7253 23.3529 52.0853 23.5349 51.4385C23.5525 51.3744 23.5827 51.3144 23.6236 51.2619C23.6645 51.2094 23.7153 51.1654 23.7732 51.1326C23.831 51.0998 23.8948 51.0786 23.9609 51.0704C24.0269 51.0622 24.0939 51.0671 24.1581 51.0848C24.2222 51.1025 24.2822 51.1327 24.3347 51.1736C24.3872 51.2145 24.4311 51.2653 24.4639 51.3232C24.4968 51.381 24.5179 51.4448 24.5261 51.5108C24.5343 51.5769 24.5295 51.6439 24.5118 51.708C24.3299 52.3413 24.1681 52.9813 24.0199 53.6281C23.9915 53.7366 23.9277 53.8327 23.8386 53.901C23.7496 53.9693 23.6403 54.006 23.5281 54.0053ZM117.47 52.9274C117.358 52.9277 117.25 52.8908 117.162 52.8224C117.074 52.754 117.012 52.6582 116.985 52.5501C116.816 51.8764 116.641 51.2701 116.446 50.6368C116.427 50.5731 116.42 50.5063 116.427 50.4402C116.434 50.374 116.454 50.3099 116.485 50.2514C116.517 50.1929 116.56 50.1412 116.611 50.0992C116.663 50.0573 116.722 50.0259 116.786 50.0069C116.85 49.9879 116.916 49.9816 116.983 49.9884C117.049 49.9952 117.113 50.015 117.171 50.0465C117.23 50.0781 117.282 50.1209 117.323 50.1725C117.365 50.2241 117.397 50.2834 117.416 50.3471C117.611 50.9871 117.793 51.6406 117.962 52.2941C117.994 52.4245 117.975 52.5626 117.907 52.6786C117.839 52.7946 117.728 52.8791 117.598 52.9139L117.47 52.9274ZM25.4886 47.6186C25.4287 47.6313 25.3667 47.6313 25.3067 47.6186C25.2411 47.5966 25.1808 47.561 25.1299 47.5141C25.079 47.4673 25.0385 47.4101 25.0111 47.3466C24.9838 47.283 24.9702 47.2143 24.9712 47.1451C24.9722 47.0759 24.9879 47.0077 25.0171 46.9449C25.2596 46.3116 25.5155 45.6783 25.785 45.0585C25.808 44.9928 25.8443 44.9326 25.8917 44.8816C25.939 44.8306 25.9964 44.7899 26.0602 44.7621C26.124 44.7343 26.1929 44.72 26.2625 44.72C26.3321 44.7201 26.401 44.7346 26.4647 44.7625C26.5285 44.7904 26.5857 44.8312 26.633 44.8823C26.6802 44.9334 26.7165 44.9937 26.7393 45.0595C26.7622 45.1252 26.7712 45.195 26.7658 45.2644C26.7604 45.3338 26.7407 45.4013 26.708 45.4627C26.452 46.0691 26.196 46.6822 25.9602 47.302C25.9232 47.3965 25.8582 47.4774 25.7739 47.534C25.6896 47.5906 25.5901 47.6201 25.4886 47.6186ZM115.368 46.5878C115.267 46.5889 115.169 46.5601 115.085 46.5049C115.001 46.4496 114.935 46.3706 114.896 46.2779C114.645 45.6626 114.382 45.0563 114.108 44.4589C114.065 44.3397 114.069 44.2088 114.118 44.0921C114.168 43.9755 114.259 43.8816 114.374 43.8291C114.489 43.7766 114.62 43.7692 114.741 43.8085C114.861 43.8478 114.962 43.9308 115.024 44.0412C115.307 44.6476 115.577 45.2674 115.833 45.8939C115.861 45.956 115.877 46.0232 115.878 46.0915C115.879 46.1597 115.867 46.2275 115.841 46.2907C115.815 46.3538 115.776 46.411 115.727 46.4587C115.678 46.5063 115.62 46.5434 115.556 46.5676C115.496 46.5869 115.431 46.5938 115.368 46.5878ZM28.3047 41.562C28.2191 41.5626 28.1351 41.5393 28.0621 41.4946C27.9475 41.4306 27.8624 41.3245 27.8246 41.1987C27.7869 41.073 27.7996 40.9375 27.8601 40.8209C28.1902 40.228 28.5338 39.6419 28.8774 39.0625C28.9496 38.9536 29.0612 38.8768 29.1887 38.8484C29.3163 38.8199 29.4499 38.8421 29.5615 38.9101C29.6731 38.9781 29.7541 39.0867 29.7873 39.2131C29.8205 39.3395 29.8034 39.4739 29.7397 39.588C29.3961 40.1539 29.066 40.7266 28.7493 41.3127C28.7034 41.3895 28.6383 41.4529 28.5603 41.4966C28.4823 41.5403 28.3941 41.5629 28.3047 41.562ZM112.417 40.5986C112.329 40.599 112.242 40.5762 112.165 40.5324C112.088 40.4887 112.024 40.4255 111.979 40.3493C111.649 39.7767 111.305 39.2107 110.955 38.6516C110.911 38.596 110.88 38.532 110.863 38.4635C110.845 38.3951 110.843 38.3238 110.854 38.2542C110.866 38.1846 110.893 38.1183 110.932 38.0595C110.971 38.0007 111.022 37.9508 111.082 37.913C111.141 37.8751 111.208 37.8502 111.278 37.8398C111.348 37.8294 111.419 37.8337 111.487 37.8525C111.555 37.8713 111.618 37.9042 111.673 37.949C111.728 37.9938 111.772 38.0495 111.804 38.1126C112.168 38.6785 112.518 39.2579 112.855 39.844C112.901 39.9204 112.925 40.0077 112.926 40.0967C112.926 40.1858 112.903 40.2734 112.858 40.3504C112.814 40.4274 112.749 40.491 112.672 40.5347C112.594 40.5783 112.506 40.6004 112.417 40.5986ZM31.9158 35.9365C31.8067 35.9351 31.7007 35.8998 31.6126 35.8355C31.5595 35.7957 31.5148 35.7458 31.481 35.6887C31.4472 35.6316 31.4249 35.5684 31.4155 35.5027C31.4062 35.437 31.4098 35.3701 31.4263 35.3059C31.4428 35.2416 31.4717 35.1812 31.5115 35.1281C31.9157 34.5891 32.3268 34.0502 32.7512 33.5247C32.8361 33.4201 32.959 33.3536 33.0929 33.3397C33.2268 33.3258 33.3608 33.3657 33.4653 33.4506C33.5698 33.5354 33.6363 33.6583 33.6502 33.7923C33.6641 33.9262 33.6242 34.0602 33.5394 34.1647C33.1217 34.6767 32.7175 35.2022 32.32 35.7344C32.2737 35.798 32.2128 35.8495 32.1425 35.8847C32.0721 35.9198 31.9944 35.9376 31.9158 35.9365ZM108.718 35.0675C108.642 35.0672 108.566 35.0495 108.497 35.0156C108.428 34.9818 108.368 34.9327 108.321 34.8721C107.91 34.3466 107.499 33.8346 107.068 33.3293C106.983 33.2271 106.941 33.0956 106.953 32.9632C106.964 32.8307 107.027 32.7081 107.128 32.6219C107.231 32.5357 107.363 32.4932 107.496 32.5032C107.63 32.5133 107.754 32.5752 107.843 32.6758C108.292 33.1923 108.716 33.7178 109.116 34.2523C109.174 34.3268 109.21 34.4162 109.219 34.5101C109.229 34.604 109.212 34.6988 109.171 34.7836C109.13 34.8685 109.065 34.9401 108.985 34.9902C108.905 35.0404 108.813 35.0672 108.718 35.0675ZM36.2949 30.8568C36.1622 30.857 36.0343 30.8064 35.9378 30.7153C35.8432 30.6206 35.79 30.4921 35.79 30.3582C35.79 30.2243 35.8432 30.0959 35.9378 30.0012C36.4094 29.5161 36.8945 29.0445 37.3863 28.5797C37.4314 28.5217 37.4887 28.4743 37.554 28.4407C37.6193 28.4072 37.6911 28.3883 37.7645 28.3853C37.8379 28.3823 37.9111 28.3954 37.9789 28.4236C38.0467 28.4518 38.1076 28.4945 38.1572 28.5486C38.2069 28.6027 38.2441 28.667 38.2663 28.737C38.2886 28.807 38.2954 28.881 38.2862 28.9538C38.2769 29.0267 38.2519 29.0967 38.2128 29.1589C38.1737 29.2211 38.1216 29.274 38.06 29.314C37.5749 29.7721 37.1034 30.2302 36.6385 30.7086C36.5895 30.7583 36.5305 30.7972 36.4655 30.8228C36.4006 30.8483 36.3309 30.8599 36.2612 30.8568H36.2949ZM104.265 30.0888C104.2 30.0897 104.135 30.0771 104.074 30.0515C104.014 30.026 103.96 29.9882 103.915 29.9405C103.443 29.4824 102.958 29.031 102.466 28.5931C102.366 28.5038 102.306 28.3784 102.298 28.2444C102.291 28.1105 102.337 27.9791 102.426 27.879C102.515 27.7789 102.641 27.7185 102.775 27.7109C102.909 27.7033 103.04 27.7492 103.14 27.8386C103.645 28.29 104.137 28.7548 104.622 29.2264C104.695 29.2967 104.745 29.3873 104.766 29.4864C104.787 29.5855 104.777 29.6886 104.739 29.7823C104.7 29.876 104.635 29.9559 104.55 30.0118C104.466 30.0676 104.366 30.0968 104.265 30.0955V30.0888ZM41.2803 26.4171C41.1753 26.4166 41.0732 26.3836 40.9879 26.3224C40.9026 26.2613 40.8385 26.1751 40.8044 26.0758C40.7704 25.9766 40.768 25.8692 40.7978 25.7686C40.8275 25.6679 40.8878 25.5791 40.9704 25.5143C41.5093 25.0966 42.0483 24.6991 42.6008 24.3084C42.7065 24.2381 42.8351 24.2107 42.9603 24.232C43.0855 24.2533 43.1979 24.3216 43.2745 24.4229C43.3432 24.5291 43.3695 24.6573 43.3483 24.782C43.3271 24.9068 43.2599 25.019 43.1599 25.0966C42.621 25.4806 42.0887 25.8714 41.5632 26.2756C41.4787 26.3602 41.366 26.4105 41.2466 26.4171H41.2803ZM99.1786 25.7434C99.0701 25.7453 98.9637 25.7122 98.8754 25.649C98.3432 25.2515 97.8043 24.8743 97.2586 24.5037C97.2033 24.4666 97.1558 24.4189 97.119 24.3634C97.0821 24.3079 97.0565 24.2457 97.0437 24.1803C97.0309 24.115 97.031 24.0477 97.0442 23.9824C97.0574 23.9171 97.0833 23.855 97.1204 23.7997C97.1576 23.7444 97.2053 23.697 97.2608 23.6601C97.3163 23.6233 97.3785 23.5977 97.4439 23.5849C97.5093 23.572 97.5765 23.5722 97.6418 23.5854C97.7071 23.5985 97.7692 23.6244 97.8245 23.6616C98.3859 24.0434 98.9383 24.4341 99.4818 24.8339C99.5796 24.9133 99.6443 25.0265 99.663 25.1511C99.6816 25.2758 99.6531 25.4029 99.5829 25.5076C99.5391 25.5847 99.4753 25.6487 99.3982 25.6925C99.3211 25.7364 99.2336 25.7586 99.1449 25.7568L99.1786 25.7434ZM46.8316 22.6915C46.7205 22.6908 46.6128 22.6537 46.525 22.5857C46.4372 22.5177 46.3743 22.4227 46.3459 22.3153C46.3175 22.2079 46.3254 22.0942 46.3681 21.9917C46.4108 21.8892 46.4861 21.8037 46.5823 21.7483C47.1707 21.4114 47.7636 21.088 48.3609 20.7781C48.4791 20.7188 48.6159 20.7081 48.7419 20.7484C48.8678 20.7887 48.9729 20.8768 49.0346 20.9937C49.0923 21.1122 49.1021 21.2483 49.0619 21.3738C49.0218 21.4993 48.9348 21.6044 48.8191 21.6674C48.2262 21.9706 47.6536 22.2872 47.0809 22.6174C46.9958 22.6706 46.8983 22.7008 46.798 22.7049L46.8316 22.6915ZM93.5465 22.1592C93.4608 22.161 93.3765 22.1376 93.3039 22.0919C92.7246 21.782 92.1317 21.4721 91.5388 21.1824C91.4183 21.1242 91.3258 21.0206 91.2816 20.8943C91.2374 20.768 91.2451 20.6293 91.303 20.5087C91.3625 20.3894 91.4662 20.298 91.592 20.254C91.7178 20.21 91.8558 20.2167 91.9767 20.2729C92.583 20.576 93.1826 20.8859 93.7755 21.2093C93.8913 21.2722 93.978 21.3778 94.017 21.5037C94.056 21.6295 94.0443 21.7657 93.9844 21.883C93.9393 21.9684 93.8712 22.0395 93.7879 22.0883C93.7046 22.1371 93.6093 22.1616 93.5127 22.1592H93.5465ZM52.8411 19.7811C52.7224 19.7828 52.607 19.7427 52.5149 19.6679C52.4229 19.593 52.3601 19.4881 52.3376 19.3716C52.3151 19.2551 52.3343 19.1344 52.3919 19.0307C52.4495 18.9269 52.5417 18.8467 52.6524 18.8042C53.279 18.5549 53.9056 18.3191 54.5456 18.0901C54.6724 18.0454 54.8118 18.0529 54.9331 18.1111C55.0544 18.1692 55.1476 18.2731 55.1923 18.4C55.237 18.5268 55.2295 18.6662 55.1713 18.7875C55.1132 18.9088 55.0093 19.002 54.8824 19.0467C54.2559 19.2623 53.6428 19.4981 53.0297 19.7204C52.9629 19.7632 52.8866 19.7886 52.8075 19.7945L52.8411 19.7811ZM87.4629 19.3836C87.4031 19.3816 87.344 19.3702 87.2877 19.3499C86.6679 19.1208 86.0413 18.8985 85.408 18.6762C85.3406 18.6593 85.2773 18.6288 85.2222 18.5863C85.1671 18.5439 85.1213 18.4906 85.0877 18.4297C85.0542 18.3687 85.0336 18.3015 85.0272 18.2323C85.0208 18.163 85.0288 18.0932 85.0506 18.0271C85.0725 17.9611 85.1078 17.9003 85.1543 17.8485C85.2007 17.7968 85.2573 17.7551 85.3205 17.7262C85.3838 17.6974 85.4524 17.6819 85.5219 17.6807C85.5915 17.6795 85.6605 17.6928 85.7247 17.7195C86.3985 17.9284 87.0115 18.1507 87.6448 18.3932C87.7098 18.4162 87.7694 18.4523 87.8199 18.4992C87.8704 18.5461 87.9108 18.6029 87.9386 18.666C87.9663 18.7291 87.9809 18.7973 87.9814 18.8662C87.9818 18.9351 87.9681 19.0035 87.9412 19.0669C87.9016 19.1689 87.8308 19.2558 87.7388 19.3151C87.6468 19.3744 87.5384 19.403 87.4292 19.397L87.4629 19.3836ZM59.1672 17.733C59.0428 17.7343 58.9223 17.6898 58.8288 17.6078C58.7352 17.5258 58.6751 17.4122 58.6601 17.2887C58.6451 17.1653 58.6762 17.0406 58.7474 16.9386C58.8186 16.8366 58.9248 16.7644 59.0459 16.7359C59.7196 16.5809 60.3934 16.4327 61.0266 16.298C61.093 16.2816 61.162 16.2789 61.2294 16.2899C61.2969 16.301 61.3614 16.3256 61.4191 16.3624C61.4767 16.3991 61.5263 16.4471 61.5649 16.5036C61.6035 16.56 61.6302 16.6237 61.6434 16.6908C61.6567 16.7578 61.6561 16.8269 61.6419 16.8937C61.6276 16.9606 61.6 17.0239 61.5606 17.0798C61.5212 17.1356 61.4709 17.1829 61.4127 17.2188C61.3545 17.2546 61.2897 17.2783 61.222 17.2883C60.5483 17.4163 59.9285 17.5646 59.2885 17.7195C59.2478 17.736 59.2044 17.7451 59.1605 17.7465L59.1672 17.733ZM81.0289 17.4837H80.9212C80.2475 17.3422 79.6277 17.2142 78.9742 17.0997C78.842 17.0765 78.7244 17.0017 78.6473 16.8918C78.5702 16.7818 78.54 16.6458 78.5632 16.5136C78.5865 16.3814 78.6612 16.2638 78.7711 16.1867C78.8811 16.1096 79.0171 16.0794 79.1494 16.1026C79.8231 16.2171 80.4967 16.3519 81.1368 16.5001C81.2567 16.5283 81.3623 16.5994 81.4335 16.7C81.5047 16.8006 81.5367 16.9237 81.5235 17.0463C81.5102 17.1688 81.4527 17.2823 81.3616 17.3653C81.2705 17.4484 81.1522 17.4953 81.0289 17.4972V17.4837ZM65.7493 16.6012C65.6153 16.6083 65.4839 16.5619 65.3841 16.4722C65.2843 16.3825 65.2242 16.2568 65.2171 16.1228C65.2099 15.9888 65.2563 15.8575 65.346 15.7576C65.4357 15.6578 65.5614 15.5977 65.6954 15.5906C66.3601 15.5232 67.0338 15.4693 67.7165 15.4289C67.7829 15.4249 67.8494 15.4341 67.9122 15.4558C67.9751 15.4775 68.033 15.5114 68.0827 15.5555C68.1324 15.5996 68.173 15.653 68.202 15.7128C68.2311 15.7726 68.2481 15.8375 68.2521 15.9039C68.2561 15.9702 68.247 16.0367 68.2253 16.0995C68.2036 16.1624 68.1697 16.2203 68.1256 16.27C68.0815 16.3198 68.028 16.3603 67.9682 16.3894C67.9085 16.4185 67.8435 16.4355 67.7772 16.4395C67.1035 16.4732 66.4297 16.5271 65.7965 16.5944L65.7493 16.6012ZM74.4267 16.5001H74.3862C73.7125 16.4462 73.0388 16.4058 72.4056 16.3856C72.3392 16.383 72.2739 16.3673 72.2136 16.3395C72.1533 16.3117 72.0991 16.2722 72.0541 16.2234C72.009 16.1746 71.974 16.1174 71.9511 16.055C71.9282 15.9927 71.9178 15.9264 71.9205 15.8601C71.9213 15.7937 71.9355 15.7282 71.9623 15.6675C71.9891 15.6068 72.0279 15.5522 72.0763 15.5068C72.1248 15.4615 72.1819 15.4265 72.2443 15.4038C72.3066 15.3812 72.3729 15.3714 72.4392 15.375C73.1129 15.375 73.7866 15.4357 74.4603 15.4895C74.5267 15.4922 74.5919 15.5079 74.6522 15.5357C74.7125 15.5636 74.7667 15.603 74.8117 15.6518C74.8568 15.7006 74.8917 15.7578 74.9147 15.8201C74.9376 15.8824 74.9481 15.9487 74.9454 16.015C74.9428 16.0814 74.9271 16.1466 74.8992 16.2069C74.8714 16.2671 74.8319 16.3214 74.7831 16.3664C74.7343 16.4114 74.6772 16.4464 74.6148 16.4694C74.5525 16.4923 74.4863 16.5028 74.4199 16.5001H74.4267Z" fill="#36354C"/>
<path d="M108.233 96.2132C108.139 96.2114 108.047 96.1834 107.967 96.1324C107.888 96.0814 107.824 96.0093 107.783 95.9242C107.741 95.8391 107.725 95.7443 107.734 95.6502C107.743 95.5561 107.779 95.4665 107.836 95.3913L108.456 94.6031C108.536 94.5063 108.65 94.443 108.774 94.4255C108.899 94.4081 109.026 94.4378 109.13 94.5087C109.236 94.5914 109.306 94.7127 109.323 94.8464C109.341 94.9801 109.305 95.1154 109.224 95.2229L108.591 96.0246C108.547 96.0789 108.493 96.1237 108.432 96.1561C108.37 96.1886 108.303 96.208 108.233 96.2132Z" fill="#36354C"/>
<path d="M29.5983 98.9618C23.0091 91.1727 18.7729 81.6691 17.3847 71.5617C15.9965 61.4542 17.5136 51.1604 21.7589 41.8833C26.0042 32.6061 32.8022 24.7288 41.3585 19.172C49.9147 13.6152 59.8758 10.6083 70.0776 10.5029C80.2794 10.3974 90.3005 13.1977 98.9698 18.5765C107.639 23.9553 114.598 31.6904 119.035 40.8778C123.471 50.0652 125.2 60.3255 124.021 70.4594C122.842 80.5934 118.803 90.1826 112.377 98.1062L111.595 97.4662C117.903 89.6929 121.868 80.2849 123.027 70.3417C124.186 60.3985 122.491 50.3308 118.14 41.3152C113.789 32.2995 106.962 24.7084 98.4573 19.4289C89.9522 14.1494 80.12 11.3996 70.11 11.5009C60.1 11.6022 50.3256 14.5504 41.929 20.0009C33.5324 25.4515 26.8606 33.1792 22.6932 42.281C18.5257 51.3829 17.0349 61.4828 18.3949 71.4005C19.7549 81.3182 23.9094 90.6441 30.3731 98.2881L29.5983 98.9618Z" fill="#BBF9C5"/>
</svg>
