<svg width="25" height="24" viewBox="0 0 25 24" fill="none" xmlns="http://www.w3.org/2000/svg">
<path d="M12.4998 6.15956C10.7136 6.15956 9.09654 6.8958 7.9259 8.08633C6.75508 9.27617 6.03103 10.9212 6.03103 12.7367C6.03103 13.7165 6.24385 14.6486 6.62412 15.4875C7.01825 16.3567 7.59369 17.1231 8.30084 17.7379C8.57166 17.9737 8.77754 18.2452 8.91383 18.5465C8.94373 18.6118 8.97042 18.6795 8.99337 18.7481C8.99871 18.769 9.00565 18.79 9.0133 18.8103C9.08287 19.0383 9.1181 19.2841 9.1181 19.5449V20.5628C9.1181 21.5084 9.49764 22.3682 10.1106 22.9908C10.7229 23.6133 11.5685 24 12.4984 24C13.4283 24 14.2739 23.6132 14.8861 22.9908C15.4984 22.3682 15.8787 21.5084 15.8787 20.5628V19.5449C15.8787 19.2841 15.9139 19.0375 15.9843 18.8096C15.992 18.79 15.998 18.7699 16.0036 18.7489C16.0272 18.6797 16.0534 18.612 16.0831 18.5467C16.2194 18.2456 16.4251 17.974 16.6968 17.7381C17.4039 17.1242 17.9794 16.3569 18.3735 15.4876C18.754 14.6488 18.9659 13.7165 18.9659 12.7369C18.9659 10.9207 18.2419 9.27638 17.071 8.0865C15.9002 6.89597 14.2831 6.15973 12.4976 6.15973L12.4998 6.15956ZM24.4139 13.3056C24.7376 13.3056 25 13.0387 25 12.7096C25 12.3805 24.7375 12.1144 24.4139 12.1144H22.4126C22.0889 12.1144 21.8265 12.3812 21.8265 12.7096C21.8265 13.0388 22.0889 13.3056 22.4126 13.3056H24.4139ZM21.3382 4.56527C21.567 4.33259 21.567 3.95516 21.3382 3.7225C21.1094 3.48982 20.7389 3.48982 20.5101 3.7225L19.0951 5.16125C18.8663 5.39393 18.8663 5.77137 19.0951 6.00402C19.324 6.2367 19.6944 6.2367 19.9233 6.00402L21.3382 4.56527ZM0.586119 12.1143C0.262449 12.1143 0 12.3812 0 12.7096C0 13.0387 0.262457 13.3056 0.586119 13.3056H2.58739C2.91106 13.3056 3.17351 13.0387 3.17351 12.7096C3.17351 12.3805 2.91105 12.1143 2.58739 12.1143H0.586119ZM4.48987 3.72273C4.26105 3.49005 3.89059 3.49005 3.66174 3.72273C3.43291 3.95541 3.43291 4.3321 3.66174 4.5655L5.07667 6.00426C5.3055 6.23693 5.67668 6.23693 5.90549 6.00426C6.13432 5.77158 6.13432 5.39415 5.90549 5.16149L4.49056 3.72273H4.48987ZM13.086 0.595289C13.086 0.266171 12.8235 0 12.4999 0C12.1762 0 11.9137 0.266875 11.9137 0.595289V2.63026C11.9137 2.95938 12.1762 3.22624 12.4999 3.22624C12.8235 3.22624 13.086 2.95937 13.086 2.63026V0.595289ZM13.086 17.9986V13.4237C13.086 13.0946 12.8235 12.8284 12.4999 12.8284C12.1762 12.8284 11.9137 13.0953 11.9137 13.4237V17.9986H9.95305C9.74647 17.562 9.44788 17.1707 9.06069 16.8353C8.48132 16.3317 8.00926 15.7022 7.68543 14.9903C7.37547 14.3071 7.20249 13.5437 7.20249 12.7368C7.20249 11.2497 7.79558 9.90263 8.75376 8.9285C9.71195 7.95418 11.0365 7.35111 12.499 7.35111C13.9614 7.35111 15.2853 7.95344 16.2442 8.9285C17.2024 9.90281 17.7955 11.2497 17.7955 12.7368C17.7955 13.5437 17.6225 14.3064 17.3126 14.9903C16.9896 15.7032 16.5174 16.3319 15.9382 16.8353C15.551 17.1707 15.2524 17.562 15.0458 17.9986H13.086ZM10.2751 19.1901H14.7246C14.7139 19.3068 14.7086 19.4251 14.7086 19.5449V20.5629C14.7086 21.18 14.4599 21.7418 14.0597 22.1487C13.6595 22.5556 13.1068 22.8086 12.5001 22.8086C11.8931 22.8086 11.3406 22.5556 10.9405 22.1487C10.5394 21.7418 10.2915 21.1798 10.2915 20.5629V19.5449C10.2915 19.4251 10.2862 19.3068 10.2755 19.1901H10.2751Z" fill="black"/>
</svg>
